<?xml version="1.0" encoding="utf-8"?>
<!-- Generator: Adobe Illustrator 26.0.1, SVG Export Plug-In . SVG Version: 6.00 Build 0)  -->
<svg version="1.1" id="Слой_1" xmlns="http://www.w3.org/2000/svg" xmlns:xlink="http://www.w3.org/1999/xlink" x="0px" y="0px"
	 viewBox="0 0 24 24" style="enable-background:new 0 0 24 24;" xml:space="preserve">
<style type="text/css">
	.st0{fill-rule:evenodd;clip-rule:evenodd;}
</style>
<path class="st0" d="M8.1,4.8C8.1,4.4,8.5,4,8.9,4h8.3C18.7,4,20,5.4,20,7.1v5.6c0,1.7-1.3,3.1-2.8,3.1H6.9c-0.1,0-0.1,0.1-0.1,0.2
	l2.4,2.6c0.3,0.3,0.3,0.9,0,1.2c-0.3,0.3-0.8,0.3-1.1,0l-3.9-4.2c-0.3-0.3-0.3-0.9,0-1.2l3.9-4.2c0.3-0.3,0.8-0.3,1.1,0
	c0.3,0.3,0.3,0.9,0,1.2l-2.4,2.6c-0.1,0.1,0,0.2,0.1,0.2h10.3c0.7,0,1.3-0.6,1.3-1.4V7.1c0-0.8-0.6-1.4-1.3-1.4H8.9
	C8.5,5.7,8.1,5.3,8.1,4.8z"/>
</svg>
