<?xml version="1.0" encoding="utf-8"?>
<!-- Generator: Adobe Illustrator 26.0.1, SVG Export Plug-In . SVG Version: 6.00 Build 0)  -->
<svg version="1.1" id="Слой_1" xmlns="http://www.w3.org/2000/svg" xmlns:xlink="http://www.w3.org/1999/xlink" x="0px" y="0px"
	 viewBox="0 0 24 24" style="enable-background:new 0 0 24 24;" xml:space="preserve">
<style type="text/css">
	.st0{fill-rule:evenodd;clip-rule:evenodd;}
</style>
<path class="st0" d="M6.6,4.3C6.7,4.1,6.9,4,7.2,4h9.7c0.2,0,0.5,0.1,0.6,0.3l2.4,2.9C20,7.3,20,7.5,20,7.6v1.2v9.1
	c0,0.6-0.2,1.1-0.7,1.5c-0.4,0.4-1,0.6-1.7,0.6H6.4c-0.6,0-1.2-0.2-1.7-0.6C4.2,19,4,18.4,4,17.9V8.8V7.6c0-0.1,0-0.3,0.1-0.4
	L6.6,4.3z M18.5,7.8L18.5,7.8c0,0.1,0,0.2-0.1,0.2H5.6C5.5,8,5.5,8,5.5,7.9V7.8c0,0,0,0,0-0.1l1.9-2.4c0.1-0.1,0.1-0.1,0.2-0.1h8.6
	c0.1,0,0.2,0,0.2,0.1L18.5,7.8C18.5,7.8,18.5,7.8,18.5,7.8z M18.5,9.6c0-0.1,0-0.1-0.1-0.1H5.6c-0.1,0-0.1,0-0.1,0.1v8.3
	c0,0.2,0.1,0.4,0.3,0.6c0.2,0.2,0.4,0.2,0.6,0.2h11.3c0.2,0,0.4-0.1,0.6-0.2c0.2-0.2,0.3-0.4,0.3-0.6V9.6z M9.2,12.5
	c0-0.3-0.3-0.5-0.6-0.5C8.3,12,8,12.2,8,12.5c0,0.9,0.4,1.8,1.2,2.5c0.8,0.6,1.8,1,2.8,1s2.1-0.4,2.8-1c0.8-0.6,1.2-1.5,1.2-2.5
	c0-0.3-0.3-0.5-0.6-0.5c-0.3,0-0.6,0.2-0.6,0.5c0,0.6-0.3,1.2-0.8,1.7c-0.5,0.4-1.2,0.7-2,0.7s-1.5-0.3-2-0.7
	C9.5,13.8,9.2,13.2,9.2,12.5z"/>
</svg>
