<?xml version="1.0" encoding="utf-8"?>
<!-- Generator: Adobe Illustrator 26.0.1, SVG Export Plug-In . SVG Version: 6.00 Build 0)  -->
<svg version="1.1" id="Слой_1" xmlns="http://www.w3.org/2000/svg" xmlns:xlink="http://www.w3.org/1999/xlink" x="0px" y="0px"
	 viewBox="0 0 24 24" style="enable-background:new 0 0 24 24;" xml:space="preserve">
<style type="text/css">
	.st0{fill-rule:evenodd;clip-rule:evenodd;}
</style>
<path class="st0" d="M16,9.4c0,2.2-1.8,4-4,4c-2.2,0-4-1.8-4-4c0-2.2,1.8-4,4-4C14.2,5.4,16,7.2,16,9.4z M14.4,14.3
	c1.8-0.9,3.1-2.8,3.1-5c0-3-2.5-5.5-5.5-5.5c-3,0-5.5,2.5-5.5,5.5c0,2.2,1.3,4.1,3.1,5c-1.3,0.2-2.4,0.6-3.4,1.2
	c-1.5,0.9-2.6,2.2-2.6,3.8c0,0.4,0.3,0.8,0.8,0.8s0.8-0.3,0.8-0.8c0-0.9,0.6-1.8,1.9-2.5c1.2-0.7,3-1.2,5-1.2s3.8,0.5,5,1.2
	c1.3,0.7,1.9,1.7,1.9,2.5c0,0.4,0.3,0.8,0.8,0.8s0.8-0.3,0.8-0.8c0-1.6-1.1-2.9-2.6-3.8C16.8,15,15.7,14.6,14.4,14.3z"/>
</svg>
