<?xml version="1.0" encoding="utf-8"?>
<!-- Generator: Adobe Illustrator 26.0.1, SVG Export Plug-In . SVG Version: 6.00 Build 0)  -->
<svg version="1.1" id="Слой_1" xmlns="http://www.w3.org/2000/svg" xmlns:xlink="http://www.w3.org/1999/xlink" x="0px" y="0px"
	 viewBox="0 0 24 25" style="enable-background:new 0 0 24 25;" xml:space="preserve">
<style type="text/css">
	.st0{fill-rule:evenodd;clip-rule:evenodd;}
</style>
<path class="st0" d="M21.3,7.8l-9-4c-0.1,0-0.2-0.1-0.3-0.1c-0.1,0-0.2,0-0.3,0l-9,4C2.4,7.9,2.2,8.2,2.2,8.5v13
	c0,0.5,0.3,0.8,0.8,0.8s0.8-0.3,0.8-0.8V9.1V8.9l0.1-0.1l8-3.6l0.1,0l0.1,0l8,3.6l0.1,0.1v0.2v12.4c0,0.5,0.3,0.8,0.8,0.8
	s0.8-0.3,0.8-0.8v-13C21.8,8.2,21.6,7.9,21.3,7.8z"/>
<path class="st0" d="M17,12.8h-3h-0.2v-0.2c0-0.4-0.2-0.9-0.5-1.2c-0.3-0.3-0.8-0.5-1.2-0.5h-2c-0.4,0-0.9,0.2-1.2,0.5
	c-0.3,0.3-0.5,0.8-0.5,1.2v2v0.2H8H7c-0.5,0-0.8,0.3-0.8,0.8v6c0,0.5,0.3,0.8,0.8,0.8h10c0.5,0,0.8-0.3,0.8-0.8v-8
	C17.8,13,17.5,12.8,17,12.8z M12.2,16.5v4v0.2H12H8H7.8v-0.2v-4v-0.2H8h4h0.2V16.5z M12.2,12.5v2v0.2H12h-2H9.8v-0.2v-2v-0.2H10h2
	h0.2V12.5z M16.2,14.5v6v0.2H16h-2h-0.2v-0.2v-6v-0.2H14h2h0.2V14.5z"/>
</svg>
