<?xml version="1.0" encoding="utf-8"?>
<!-- Generator: Adobe Illustrator 26.0.1, SVG Export Plug-In . SVG Version: 6.00 Build 0)  -->
<svg version="1.1" id="Слой_1" xmlns="http://www.w3.org/2000/svg" xmlns:xlink="http://www.w3.org/1999/xlink" x="0px" y="0px"
	 viewBox="0 0 445 500" xml:space="preserve">
<g>
	<path class="st0" d="M165.3,306.3c-16-12.5-37.3-18.8-63.8-18.8c-25.8,0-46.8,6.2-63.2,18.6c-16.3,12.3-24.8,28.3-25.5,48h50.1
		c1.4-7.6,5.3-13.8,11.8-18.4c6.6-4.8,14.8-7.1,24.6-7.1c11.4,0,20.3,2.6,26.6,7.9c6.4,5.4,9.6,13,9.6,22.9V373l-51.6,3.2
		c-26.5,1.6-46.6,7.6-60.4,18c-14,10.6-21,25.3-21,43.9c0,18.3,6.6,33.2,19.9,44.8C35.4,494.3,52,500,72.1,500c13.5,0,25.9-3,37.3-9
		c11.8-6.3,20.4-14.7,25.9-25.3h1.1v31.9h52.9V356C189.3,335.3,181.3,318.8,165.3,306.3z M135.5,421.8c0,11.1-4.4,20.3-13.3,27.6
		c-8.6,7.1-19.4,10.7-32.3,10.7c-10,0-17.9-2.3-23.8-6.8c-6-4.4-9-10.4-9-18c0-15.6,11.7-24.2,35.1-25.7l43.3-3V421.8z"/>
	<path class="st0" d="M32.2,19.9C16.9,33.1,9.3,51,9.3,73.5c0,15.1,4.2,28,12.5,38.8c8.1,10.4,19.5,17.9,34.2,22.6L0,212.5h62.5
		l47.5-69.1h24.3v69.1h55V0H93.8C68.1,0,47.5,6.6,32.2,19.9z M134.3,42.1v61.6H99.2c-10.3,0-18.6-2.8-24.9-8.5
		C68.1,89.6,65,82.4,65,73.5c0-9.5,3.1-17.2,9.3-23c6.2-5.7,14.5-8.5,24.9-8.5H134.3z"/>
	<path class="st0" d="M438.9,153.3L292.2,7c-1.7-1.9-3.6-3.4-5.9-4.6c-0.3-0.1-0.5-0.3-0.8-0.4c-0.3-0.1-0.6-0.3-0.9-0.4
		c-0.6-0.2-1.2-0.5-1.8-0.6c0,0,0,0-0.1,0c-7.1-2.2-15.2-0.5-20.9,5.1c-3.9,3.9-6.1,9.2-6.1,14.8v50.3v125.1v43.1v31.5v43.6v164
		c0,11.1,8.4,20.9,19.6,21.6c12.1,0.7,22-8.8,22-20.7l0.1-164.8h0.1v-22.8V271v-74.8h-0.2l0.1-125.2l111.3,111.3
		c7.4,7.4,19.1,8.8,27.5,2.6C447,177.3,447.8,162.2,438.9,153.3z"/>
</g>
</svg>
