<?xml version="1.0" encoding="utf-8"?>
<!-- Generator: Adobe Illustrator 26.0.1, SVG Export Plug-In . SVG Version: 6.00 Build 0)  -->
<svg version="1.1" id="Слой_1" xmlns="http://www.w3.org/2000/svg" xmlns:xlink="http://www.w3.org/1999/xlink" x="0px" y="0px"
	 viewBox="0 0 440 500" xml:space="preserve">
<g>
	<path class="st0" d="M113.3,0H29.6v102.3H3v32.5h26.7v21.8H3v27.4h26.7v28.4h44.5v-28.4h57.6v-27.4H74.1v-21.1h36.8
		c21.6,0,39.2-6.3,52.9-19C177.2,104,184,87.8,184,68c0-20-6.5-36.3-19.4-48.9C151.5,6.4,134.4,0,113.3,0z M129,92.8
		c-6.9,6-16.6,9-29.3,9H74.1V35.3H100c12.6,0,22.2,2.9,29,8.8c6.6,5.8,9.9,13.9,9.9,24.3C138.9,79,135.6,87.1,129,92.8z"/>
	<path class="st0" d="M98.1,373.8l-13.9-2.7v-48.3c6.9,0.9,12.6,3.7,17.1,8.3s6.8,9.9,7,16.1h36c-0.3-14.9-5.8-27.3-16.6-37
		c-10.9-9.8-25.4-15.6-43.5-17.2V275H65.9v17.7c-19.4,1.6-34.5,7.2-45.3,17c-10.9,9.7-16.3,22.5-16.3,38.3c0,27.4,16,44.8,47.9,52.2
		l13.7,3.2V454c-8.2-0.9-14.9-3.6-20.1-8.2c-5.2-4.6-8-10.2-8.4-17h-37c0.1,15.9,6,28.7,17.6,38.3c11.6,9.6,27.5,15,47.9,16.2V500
		h18.3v-16.7c20.4-1.7,36.1-7.5,47-17.4c11.1-9.9,16.6-23.1,16.6-39.5C147.8,398.6,131.2,381.1,98.1,373.8z M65.9,367.4
		c-16.1-3.5-24.2-11-24.2-22.5c0-6.1,2.3-11.3,6.9-15.4c4.5-4.1,10.3-6.3,17.4-6.7V367.4z M104,447.2c-4.7,4.1-11.4,6.5-19.8,7
		v-47.4c18,3.5,26.9,11.5,26.9,23.8C111.1,437.5,108.8,443,104,447.2z"/>
	<path class="st0" d="M433.5,153.3L286.9,7c-1.7-1.9-3.6-3.4-5.9-4.6c-0.3-0.1-0.5-0.3-0.8-0.4c-0.3-0.1-0.6-0.3-0.9-0.4
		c-0.6-0.2-1.2-0.5-1.8-0.6c0,0,0,0-0.1,0c-7.1-2.2-15.2-0.5-20.9,5.1c-3.9,3.9-6.1,9.2-6.1,14.8v50.3v125.1v43.1v31.5v43.6v164
		c0,11.1,8.4,20.9,19.6,21.6c12.1,0.7,22-8.8,22-20.7l0.1-164.8h0.1v-22.8V271v-74.8H292l0.1-125.2l111.3,111.3
		c7.4,7.4,19.1,8.8,27.5,2.6C441.6,177.3,442.4,162.2,433.5,153.3z"/>
</g>
</svg>
