<?xml version="1.0" encoding="utf-8"?>
<!-- Generator: Adobe Illustrator 26.0.1, SVG Export Plug-In . SVG Version: 6.00 Build 0)  -->
<svg version="1.1" id="Слой_1" xmlns="http://www.w3.org/2000/svg" xmlns:xlink="http://www.w3.org/1999/xlink" x="0px" y="0px"
	 viewBox="0 0 24 24" style="enable-background:new 0 0 24 24;" xml:space="preserve">
<g>
	<path d="M9,2H4C2.9,2,2,2.9,2,4v5c0,1.1,0.9,2,2,2h5c1.1,0,2-0.9,2-2V4C11,2.9,10.1,2,9,2z M9,9H4V4h5V9z"/>
	<path d="M20,2h-5c-1.1,0-2,0.9-2,2v5c0,1.1,0.9,2,2,2h5c1.1,0,2-0.9,2-2V4C22,2.9,21.1,2,20,2z M20,9h-5V4h5V9z"/>
	<path d="M20,13h-5c-1.1,0-2,0.9-2,2v5c0,1.1,0.9,2,2,2h5c1.1,0,2-0.9,2-2v-5C22,13.9,21.1,13,20,13z M20,20h-5v-5h5V20z"/>
	<path d="M9,13H4c-1.1,0-2,0.9-2,2v5c0,1.1,0.9,2,2,2h5c1.1,0,2-0.9,2-2v-5C11,13.9,10.1,13,9,13z M9,20H4v-5h5V20z"/>
</g>
</svg>
