<?xml version="1.0" encoding="utf-8"?>
<!-- Generator: Adobe Illustrator 26.0.1, SVG Export Plug-In . SVG Version: 6.00 Build 0)  -->
<svg version="1.1" id="Слой_1" xmlns="http://www.w3.org/2000/svg" xmlns:xlink="http://www.w3.org/1999/xlink" x="0px" y="0px"
	 viewBox="0 0 24 24" style="enable-background:new 0 0 24 24;" xml:space="preserve">
<g>
	<path d="M3,4h18c0.6,0,1-0.4,1-1s-0.4-1-1-1H3C2.4,2,2,2.4,2,3S2.4,4,3,4z"/>
	<path d="M21,11H3c-0.6,0-1,0.4-1,1c0,0.6,0.4,1,1,1h18c0.6,0,1-0.4,1-1C22,11.4,21.6,11,21,11z"/>
	<path d="M21,20H3c-0.6,0-1,0.4-1,1s0.4,1,1,1h18c0.6,0,1-0.4,1-1S21.6,20,21,20z"/>
</g>
</svg>
