<?xml version="1.0" encoding="utf-8"?>
<!-- Generator: Adobe Illustrator 26.0.1, SVG Export Plug-In . SVG Version: 6.00 Build 0)  -->
<svg version="1.1" id="Слой_1" xmlns="http://www.w3.org/2000/svg" xmlns:xlink="http://www.w3.org/1999/xlink" x="0px" y="0px"
	 viewBox="0 0 24 24" style="enable-background:new 0 0 24 24;" xml:space="preserve">
<style type="text/css">
	.st0{fill-rule:evenodd;clip-rule:evenodd;}
</style>
<g>
	<path class="st0" d="M20,13h-3H4c-1.1,0-2,0.9-2,2v5c0,1.1,0.9,2,2,2h13h3c1.1,0,2-0.9,2-2v-5C22,13.9,21.1,13,20,13z M20,20h-3H4
		v-5h13h3V20z"/>
	<path class="st0" d="M20,2h-3H4C2.9,2,2,2.9,2,4v5c0,1.1,0.9,2,2,2h13h3c1.1,0,2-0.9,2-2V4C22,2.9,21.1,2,20,2z M20,9h-3H4V4h13h3
		V9z"/>
</g>
</svg>
