<?xml version="1.0" encoding="utf-8"?>
<!-- Generator: Adobe Illustrator 26.0.1, SVG Export Plug-In . SVG Version: 6.00 Build 0)  -->
<svg version="1.1" id="Слой_1" xmlns="http://www.w3.org/2000/svg" xmlns:xlink="http://www.w3.org/1999/xlink" x="0px" y="0px"
	 viewBox="0 0 24 24" style="enable-background:new 0 0 24 24;" xml:space="preserve">
<style type="text/css">
	.st0{fill-rule:evenodd;clip-rule:evenodd;}
</style>
<path class="st0" d="M19.8,18.7l-5.4-5.4c1-1,1.6-2.4,1.6-3.9c0-3-2.5-5.5-5.5-5.5S5,6.5,5,9.5c0,3,2.5,5.5,5.5,5.5
	c1,0,1.9-0.3,2.7-0.7c0,0,0,0,0,0l5.5,5.5c0.3,0.3,0.8,0.3,1.1,0C20.1,19.5,20.1,19,19.8,18.7z M10.5,13.5c-2.2,0-4-1.8-4-4
	c0-2.2,1.8-4,4-4c2.2,0,4,1.8,4,4C14.5,11.7,12.7,13.5,10.5,13.5z"/>
</svg>
