<?xml version="1.0" encoding="utf-8"?>
<!-- Generator: Adobe Illustrator 26.0.1, SVG Export Plug-In . SVG Version: 6.00 Build 0)  -->
<svg version="1.1" id="Слой_1" xmlns="http://www.w3.org/2000/svg" xmlns:xlink="http://www.w3.org/1999/xlink" x="0px" y="0px"
	 viewBox="0 0 24 24" style="enable-background:new 0 0 24 24;" xml:space="preserve">
<path d="M16.5,2c-1.8,0-3.1,0.5-4.5,1.6C10.6,2.5,9.3,2,7.5,2C3.9,2,1,4.9,1,8.5c0,2.7,1.7,4.6,3.3,6.2l7,7c0.2,0.2,0.5,0.3,0.7,0.3
	s0.5-0.1,0.7-0.3l7-7c1.6-1.6,3.3-3.6,3.3-6.2C23,4.9,20.1,2,16.5,2z M18.3,13.3C18.3,13.3,18.3,13.3,18.3,13.3L12,19.6l-6.3-6.3
	C4.3,11.9,3,10.4,3,8.5C3,6,5,4,7.5,4C9,4,10,4.4,11.3,5.7c0.4,0.4,1,0.4,1.4,0C14,4.4,15,4,16.5,4C19,4,21,6,21,8.5
	C21,10.4,19.7,11.9,18.3,13.3z"/>
</svg>
