<?xml version="1.0" encoding="UTF-8" standalone="no"?>
<svg
   xmlns:dc="http://purl.org/dc/elements/1.1/"
   xmlns:cc="http://creativecommons.org/ns#"
   xmlns:rdf="http://www.w3.org/1999/02/22-rdf-syntax-ns#"
   xmlns:svg="http://www.w3.org/2000/svg"
   xmlns="http://www.w3.org/2000/svg"
   width="43.135777mm"
   height="43.039944mm"
   viewBox="0 0 43.135777 43.039944"
   version="1.1"
   id="svg1819">
  <defs
     id="defs1813" />
  <metadata
     id="metadata1816">
    <rdf:RDF>
      <cc:Work
         rdf:about="">
        <dc:format>image/svg+xml</dc:format>
        <dc:type
           rdf:resource="http://purl.org/dc/dcmitype/StillImage" />
        <dc:title></dc:title>
      </cc:Work>
    </rdf:RDF>
  </metadata>
  <g
     id="layer1"
     transform="translate(-52.515442,-32.908598)">
    <g
       id="g1780"
       transform="matrix(0.26458333,0,0,0.26458333,35.40075,18.623251)"
       style="fill:#003d18;fill-opacity:1">
      <g
         id="g1752"
         style="fill:#003d18;fill-opacity:1">
        <g
           id="g1742"
           style="fill:#003d18;fill-opacity:1">
          <path
             d="m 137.2912,114.8159 -55.6251,6.3777 c 1.2331,-8.4393 3.0745,-16.7247 6.3119,-24.6427 2.3398,-5.722 5.0355,-10.8516 8.2999,-15.7493 4.1082,-6.164 9.1241,-12.2565 14.8839,-16.9742 -1.0001,1.647 -1.9891,3.2945 -2.9685,4.9456 -2.793,4.7104 -5.5136,9.4473 -7.9954,14.3139 -2.531,4.9637 -4.6346,9.8234 -5.9666,15.0227 -0.917,3.5796 -1.4757,6.8463 -0.7316,10.4604 1.4088,0.58 2.94,0.9502 4.5062,1.23 6.0721,1.0851 12.2306,1.8774 18.3886,2.5999 1.1999,0.1406 20.9041,2.4217 20.8967,2.416 z"
             style="fill:#003d18;fill-opacity:1;fill-rule:evenodd"
             id="path1736" />
          <path
             d="m 142.8664,113.1265 -25.8063,-12.6709 -9.9887,-5.1216 c -0.1191,-1.4817 -0.1559,-2.837 0.0487,-4.1885 0.3603,-2.3823 1.0559,-4.6415 1.9466,-6.8247 1.353,-3.3163 3.0141,-6.3947 4.953,-9.3169 1.5661,-2.3604 3.0801,-4.4873 5.3019,-6.226 -0.7212,1.4839 -1.3556,3.0052 -1.9656,4.5368 -1.0202,2.5614 -1.8762,5.1559 -2.27,7.7601 -0.5252,3.4719 -0.2049,6.2065 0.9375,8.697 2.152,4.6942 6.5483,8.3767 10.758,11.5892 1.3791,1.0525 16.0965,11.7609 16.0849,11.7655 z"
             style="fill:#003d18;fill-opacity:1;fill-rule:evenodd"
             id="path1738" />
          <path
             d="m 135.6412,97.1799 c -4.2735,-4.3291 -8.8376,-9.1111 -11.8361,-14.4343 -1.0647,-1.8905 -1.5721,-3.8104 -2.1554,-5.8709 1.1341,-2.0018 1.9295,-3.607 3.3675,-5.0811 0.3841,-0.3937 0.9357,-0.7398 1.4154,-1.1279 -0.1117,0.9508 -0.1432,1.9055 -0.1092,2.8591 0.1619,4.5411 1.6575,9.2298 3.6009,13.2919 1.152,2.4083 2.5662,4.6998 3.9027,7.0299 0.6299,1.0976 1.3082,2.1884 1.8142,3.3333 z"
             style="fill:#003d18;fill-opacity:1;fill-rule:evenodd"
             id="path1740" />
        </g>
        <g
           id="g1750"
           style="fill:#003d18;fill-opacity:1">
          <path
             d="m 158.5284,114.8159 55.6251,6.3777 c -1.2331,-8.4393 -3.0744,-16.7247 -6.3119,-24.6427 -2.3397,-5.722 -5.0355,-10.8516 -8.2998,-15.7493 -4.1083,-6.164 -9.1242,-12.2565 -14.8839,-16.9742 1.0001,1.647 1.9891,3.2945 2.9684,4.9456 2.793,4.7104 5.5137,9.4473 7.9954,14.3139 2.5311,4.9637 4.6347,9.8234 5.9667,15.0227 0.917,3.5796 1.4757,6.8463 0.7316,10.4604 -1.4088,0.58 -2.9401,0.9502 -4.5062,1.23 -6.0721,1.0851 -12.2307,1.8774 -18.3887,2.5999 -1.1999,0.1406 -20.9041,2.4217 -20.8967,2.416 z"
             style="fill:#003d18;fill-opacity:1;fill-rule:evenodd"
             id="path1744" />
          <path
             d="m 152.9532,113.1265 25.8064,-12.6709 9.9887,-5.1216 c 0.119,-1.4817 0.1559,-2.837 -0.0488,-4.1885 -0.3603,-2.3823 -1.0559,-4.6415 -1.9465,-6.8247 -1.353,-3.3163 -3.0141,-6.3947 -4.953,-9.3169 -1.5661,-2.3604 -3.0801,-4.4873 -5.3019,-6.226 0.7211,1.4839 1.3555,3.0052 1.9655,4.5368 1.0202,2.5614 1.8763,5.1559 2.27,7.7601 0.5253,3.4719 0.205,6.2065 -0.9374,8.697 -2.1521,4.6942 -6.5483,8.3767 -10.7581,11.5892 -1.379,1.0525 -16.0965,11.7609 -16.0849,11.7655 z"
             style="fill:#003d18;fill-opacity:1;fill-rule:evenodd"
             id="path1746" />
          <path
             d="m 160.1785,97.1799 c 4.2735,-4.3291 8.8375,-9.1111 11.836,-14.4343 1.0647,-1.8905 1.5721,-3.8104 2.1555,-5.8709 -1.1342,-2.0018 -1.9296,-3.607 -3.3676,-5.0811 -0.3841,-0.3937 -0.9357,-0.7398 -1.4153,-1.1279 0.1117,0.9508 0.1431,1.9055 0.1091,2.8591 -0.1618,4.5411 -1.6574,9.2298 -3.6008,13.2919 -1.152,2.4083 -2.5662,4.6998 -3.9028,7.0299 -0.6298,1.0976 -1.3082,2.1884 -1.8141,3.3333 z"
             style="fill:#003d18;fill-opacity:1;fill-rule:evenodd"
             id="path1748" />
        </g>
      </g>
      <g
         id="g1770"
         style="fill:#003d18;fill-opacity:1">
        <g
           id="g1760"
           style="fill:#003d18;fill-opacity:1">
          <path
             d="m 137.2912,152.5388 -55.6251,-6.3777 c 1.2331,8.4393 3.0745,16.7247 6.3119,24.6427 2.3398,5.7221 5.0355,10.8516 8.2999,15.7493 4.1082,6.164 9.1241,12.2565 14.8839,16.9742 -1.0001,-1.647 -1.9891,-3.2944 -2.9685,-4.9456 -2.793,-4.7104 -5.5136,-9.4473 -7.9954,-14.3139 -2.531,-4.9637 -4.6346,-9.8234 -5.9666,-15.0227 -0.917,-3.5796 -1.4757,-6.8463 -0.7316,-10.4604 1.4088,-0.58 2.94,-0.9502 4.5062,-1.23 6.0721,-1.0851 12.2306,-1.8774 18.3886,-2.5999 1.1999,-0.1406 20.9041,-2.4217 20.8967,-2.416 z"
             style="fill:#003d18;fill-opacity:1;fill-rule:evenodd"
             id="path1754" />
          <path
             d="m 142.8664,154.2283 -25.8063,12.6708 -9.9887,5.1217 c -0.1191,1.4816 -0.1559,2.8369 0.0487,4.1884 0.3603,2.3823 1.0559,4.6415 1.9466,6.8247 1.353,3.3163 3.0141,6.3947 4.953,9.3169 1.5661,2.3604 3.0801,4.4873 5.3019,6.2261 -0.7212,-1.484 -1.3556,-3.0053 -1.9656,-4.5369 -1.0202,-2.5614 -1.8762,-5.1559 -2.27,-7.7601 -0.5252,-3.4719 -0.2049,-6.2065 0.9375,-8.697 2.152,-4.6942 6.5483,-8.3767 10.758,-11.5892 1.3791,-1.0525 16.0965,-11.7609 16.0849,-11.7654 z"
             style="fill:#003d18;fill-opacity:1;fill-rule:evenodd"
             id="path1756" />
          <path
             d="m 135.6412,170.1748 c -4.2735,4.3291 -8.8376,9.1112 -11.8361,14.4343 -1.0647,1.8905 -1.5721,3.8104 -2.1554,5.8709 1.1341,2.0018 1.9295,3.6071 3.3675,5.0811 0.3841,0.3937 0.9357,0.7398 1.4154,1.1279 -0.1117,-0.9508 -0.1432,-1.9055 -0.1092,-2.859 0.1619,-4.5411 1.6575,-9.2299 3.6009,-13.292 1.152,-2.4083 2.5662,-4.6998 3.9027,-7.0299 0.6299,-1.0976 1.3082,-2.1884 1.8142,-3.3333 z"
             style="fill:#003d18;fill-opacity:1;fill-rule:evenodd"
             id="path1758" />
        </g>
        <g
           id="g1768"
           style="fill:#003d18;fill-opacity:1">
          <path
             d="m 158.5284,152.5388 55.6251,-6.3777 c -1.2331,8.4393 -3.0744,16.7247 -6.3119,24.6427 -2.3397,5.7221 -5.0355,10.8516 -8.2998,15.7493 -4.1083,6.164 -9.1242,12.2565 -14.8839,16.9742 1.0001,-1.647 1.9891,-3.2944 2.9684,-4.9456 2.793,-4.7104 5.5137,-9.4473 7.9954,-14.3139 2.5311,-4.9637 4.6347,-9.8234 5.9667,-15.0227 0.917,-3.5796 1.4757,-6.8463 0.7316,-10.4604 -1.4088,-0.58 -2.9401,-0.9502 -4.5062,-1.23 -6.0721,-1.0851 -12.2307,-1.8774 -18.3887,-2.5999 -1.1999,-0.1406 -20.9041,-2.4217 -20.8967,-2.416 z"
             style="fill:#003d18;fill-opacity:1;fill-rule:evenodd"
             id="path1762" />
          <path
             d="m 152.9532,154.2283 25.8064,12.6708 9.9887,5.1217 c 0.119,1.4816 0.1559,2.8369 -0.0488,4.1884 -0.3603,2.3823 -1.0559,4.6415 -1.9465,6.8247 -1.353,3.3163 -3.0141,6.3947 -4.953,9.3169 -1.5661,2.3604 -3.0801,4.4873 -5.3019,6.2261 0.7211,-1.484 1.3555,-3.0053 1.9655,-4.5369 1.0202,-2.5614 1.8763,-5.1559 2.27,-7.7601 0.5253,-3.4719 0.205,-6.2065 -0.9374,-8.697 -2.1521,-4.6942 -6.5483,-8.3767 -10.7581,-11.5892 -1.379,-1.0525 -16.0965,-11.7609 -16.0849,-11.7654 z"
             style="fill:#003d18;fill-opacity:1;fill-rule:evenodd"
             id="path1764" />
          <path
             d="m 160.1785,170.1748 c 4.2735,4.3291 8.8375,9.1112 11.836,14.4343 1.0647,1.8905 1.5721,3.8104 2.1555,5.8709 -1.1342,2.0018 -1.9296,3.6071 -3.3676,5.0811 -0.3841,0.3937 -0.9357,0.7398 -1.4153,1.1279 0.1117,-0.9508 0.1431,-1.9055 0.1091,-2.859 -0.1618,-4.5411 -1.6574,-9.2299 -3.6008,-13.292 -1.152,-2.4083 -2.5662,-4.6998 -3.9028,-7.0299 -0.6298,-1.0976 -1.3082,-2.1884 -1.8141,-3.3333 z"
             style="fill:#003d18;fill-opacity:1;fill-rule:evenodd"
             id="path1766" />
        </g>
      </g>
      <path
         d="m 81.3217,124.3613 h 12.5119 v 19.0324 h -3.1754 v -15.8375 h -6.1605 v 15.8375 h -3.176 z m 15.757,19.0324 v -19.0324 h 5.095 c 1.9304,0 3.1901,0.0975 3.776,0.2883 0.9011,0.2834 1.6594,0.9039 2.2674,1.8609 0.6081,0.9573 0.9119,2.1935 0.9119,3.7046 0,1.1699 -0.1757,2.1535 -0.5275,2.9469 -0.3515,0.7974 -0.7945,1.4224 -1.3368,1.8788 -0.5386,0.4519 -1.0877,0.7532 -1.6447,0.8995 -0.758,0.1817 -1.8567,0.2746 -3.2964,0.2746 h -2.0693 v 7.1788 z m 3.1756,-15.8108 v 5.3974 h 1.7363 c 1.2526,0 2.0914,-0.0975 2.5123,-0.2971 0.4212,-0.1992 0.7509,-0.5093 0.9927,-0.9348 0.2381,-0.4255 0.3591,-0.9173 0.3591,-1.48 0,-0.6914 -0.1686,-1.2631 -0.5054,-1.715 -0.3333,-0.4475 -0.7619,-0.7313 -1.2747,-0.8418 -0.381,-0.0888 -1.1429,-0.1287 -2.2856,-0.1287 z m 11.5229,-3.2216 h 2.9741 v 12.6692 l 6.3731,-12.6692 h 3.1646 v 19.0324 h -2.9707 v -12.4254 l -6.3655,12.4254 h -3.1756 z m 15.1123,9.6335 c 0,-1.9408 0.2378,-3.5671 0.7177,-4.8832 0.3589,-0.9658 0.8462,-1.8388 1.4653,-2.6099 0.6188,-0.7667 1.2965,-1.3382 2.0327,-1.7104 0.9816,-0.5051 2.1095,-0.7534 3.3917,-0.7534 2.3184,0 4.1717,0.8685 5.5635,2.6101 1.3918,1.7371 2.0877,4.1564 2.0877,7.2539 0,3.0753 -0.6922,5.4771 -2.073,7.2141 -1.3807,1.7326 -3.2269,2.6011 -5.5343,2.6011 -2.3406,0 -4.2012,-0.864 -5.582,-2.5877 -1.3808,-1.7283 -2.0693,-4.108 -2.0693,-7.1346 z m 3.2706,-0.1284 c 0,2.1538 0.4139,3.7888 1.2345,4.9011 0.824,1.1121 1.868,1.6659 3.1351,1.6659 1.2637,0 2.3037,-0.5493 3.117,-1.6571 0.8096,-1.1035 1.2161,-2.7561 1.2161,-4.9629 0,-2.1804 -0.3957,-3.8066 -1.1832,-4.8832 -0.7909,-1.0727 -1.8422,-1.6087 -3.1499,-1.6087 -1.3113,0 -2.366,0.5451 -3.1683,1.6308 -0.7985,1.0857 -1.2013,2.7207 -1.2013,4.9141 z m 14.4678,9.5273 v -19.0324 h 5.0947 c 1.9304,0 3.1901,0.0975 3.7763,0.2883 0.9011,0.2834 1.6591,0.9039 2.2671,1.8609 0.6081,0.9573 0.912,2.1935 0.912,3.7046 0,1.1699 -0.1758,2.1535 -0.5273,2.9469 -0.3515,0.7974 -0.7948,1.4224 -1.3371,1.8788 -0.5383,0.4519 -1.0876,0.7532 -1.6444,0.8995 -0.7582,0.1817 -1.8569,0.2746 -3.2964,0.2746 h -2.0693 v 7.1788 z m 3.1756,-15.8108 v 5.3974 h 1.736 c 1.2526,0 2.0914,-0.0975 2.5126,-0.2971 0.4212,-0.1992 0.7509,-0.5093 0.9927,-0.9348 0.2381,-0.4255 0.3589,-0.9173 0.3589,-1.48 0,-0.6914 -0.1684,-1.2631 -0.5055,-1.715 -0.3333,-0.4475 -0.7619,-0.7313 -1.2747,-0.8418 -0.3807,-0.0888 -1.1426,-0.1287 -2.2853,-0.1287 z m 11.5226,-3.2216 h 2.9741 v 12.6692 l 6.3731,-12.6692 h 3.1646 v 19.0324 h -2.9704 v -12.4254 l -6.3658,12.4254 h -3.1756 z m 19.2951,19.0324 v -15.8108 h -4.6661 v -3.2216 h 12.5005 v 3.2216 h -4.6553 v 15.8108 z m 9.8856,0 v -19.0324 h 11.662 v 3.2216 h -8.4864 v 4.2185 h 7.8965 v 3.204 h -7.8965 v 5.18 h 8.7866 v 3.2083 z m 18.1961,0 v -15.8108 h -4.6661 v -3.2216 h 12.5005 v 3.2216 h -4.6553 v 15.8108 z"
         style="fill:#003d18;fill-opacity:1;fill-rule:evenodd"
         id="path1772" />
      <path
         d="m 198.4388,54.1446 5.9718,5.9717 -7.5929,7.5926 -1.0111,-1.0111 6.6962,-6.6963 -3.9563,-3.9563 -6.6963,6.6963 -1.004,-1.0041 z m 4.938,18.146 0.7069,1.1766 c -0.7608,0.3215 -1.4924,0.3886 -2.196,0.2024 -0.7033,-0.1896 -1.3337,-0.6392 -1.8896,-1.3504 -0.7001,-0.8966 -0.9802,-1.823 -0.8379,-2.7783 0.1406,-0.9569 0.7101,-1.8238 1.707,-2.6024 1.0321,-0.8065 2.0399,-1.1656 3.0232,-1.0806 0.985,0.0873 1.8079,0.5516 2.4698,1.3986 0.6404,0.8195 0.8839,1.7082 0.7311,2.6617 -0.1514,0.9556 -0.7342,1.8301 -1.7447,2.6195 -0.063,0.0494 -0.1574,0.1197 -0.2824,0.2109 l -3.5708,-4.5703 c -0.6449,0.5638 -1.0114,1.158 -1.1001,1.7796 -0.091,0.6228 0.0621,1.1886 0.4623,1.7008 0.2971,0.3801 0.6517,0.6267 1.0636,0.7396 0.4099,0.1142 0.8952,0.0779 1.4576,-0.1077 z m -0.9839,-4.7231 2.6736,3.4219 c 0.4788,-0.447 0.7636,-0.8824 0.8521,-1.2971 0.1411,-0.6434 0.007,-1.2299 -0.4042,-1.7558 -0.3725,-0.4768 -0.8462,-0.7543 -1.4193,-0.8299 -0.5729,-0.0755 -1.1407,0.079 -1.7022,0.4609 z m -1.8199,10.4595 9.123,-5.7004 0.6358,1.0176 -0.8566,0.5352 c 0.4847,0.03 0.9065,0.1437 1.2637,0.3424 0.3557,0.1964 0.6698,0.5102 0.9385,0.9405 0.3524,0.5638 0.5162,1.1515 0.497,1.762 -0.0204,0.614 -0.2268,1.1943 -0.6186,1.7422 -0.39,0.5505 -0.9,1.0225 -1.5295,1.4159 -0.6744,0.4213 -1.3584,0.6806 -2.0512,0.7747 -0.6916,0.0961 -1.3249,0.0026 -1.902,-0.2795 -0.5752,-0.2834 -1.0225,-0.6789 -1.3405,-1.1877 -0.2333,-0.373 -0.3629,-0.7548 -0.3915,-1.15 -0.0286,-0.3946 0.0196,-0.7608 0.14,-1.1015 l -3.2099,2.0058 z m 6.4199,-2.6056 c -0.8478,0.5298 -1.3683,1.0939 -1.5605,1.6917 -0.1904,0.5964 -0.1332,1.1415 0.1715,1.6291 0.3101,0.4961 0.7864,0.7912 1.4295,0.8816 0.641,0.0915 1.4032,-0.1372 2.2851,-0.688 0.8418,-0.5261 1.3606,-1.0919 1.5647,-1.6999 0.2015,-0.6066 0.1531,-1.1512 -0.1463,-1.6302 -0.2979,-0.4771 -0.7843,-0.76 -1.4587,-0.8484 -0.6744,-0.0888 -1.4372,0.1343 -2.2853,0.6641 z m 7.4237,4.8926 1.3802,2.7088 c 0.3393,0.6661 0.5357,1.1889 0.5924,1.5695 0.053,0.3799 -0.008,0.7617 -0.1848,1.1467 -0.1783,0.3826 -0.4723,0.6808 -0.8864,0.892 -0.33,0.1681 -0.6545,0.2466 -0.97,0.2333 -0.3144,-0.011 -0.6271,-0.1125 -0.9315,-0.3027 0.0575,0.3832 -0.008,0.756 -0.1962,1.1239 -0.1882,0.3685 -0.4855,0.6545 -0.8957,0.8634 -0.6786,0.2923 -1.2866,0.3051 -1.8198,0.0406 -0.5364,-0.2653 -1.01,-0.8039 -1.4245,-1.6169 l -1.5933,-3.1277 z m -2.3162,2.662 0.6375,1.2515 c 0.2557,0.5015 0.455,0.832 0.6035,0.9919 0.1465,0.1613 0.3387,0.2735 0.5729,0.3421 0.233,0.0666 0.462,0.0425 0.6826,-0.07 0.3653,-0.186 0.5555,-0.4456 0.5666,-0.7767 0.013,-0.3322 -0.1415,-0.8118 -0.4604,-1.4377 l -0.6584,-1.2921 z m -3.0473,1.5526 0.7875,1.546 c 0.3396,0.6658 0.648,1.084 0.9298,1.2518 0.2806,0.1712 0.6139,0.1641 0.9969,-0.0142 0.2228,-0.1134 0.3918,-0.2891 0.5071,-0.5307 0.1168,-0.2389 0.1415,-0.4872 0.0737,-0.7415 -0.0669,-0.258 -0.2307,-0.6403 -0.4907,-1.1503 l -0.7239,-1.4213 z m 11.9478,10.8561 0.4513,1.2407 -7.3083,2.66 -0.4516,-1.2407 z m -2.5226,-6.9301 0.4516,1.2404 -2.8542,1.0386 0.5712,1.5695 c 0.3719,1.0219 0.4595,1.884 0.2636,2.5804 -0.1965,0.6968 -0.6429,1.173 -1.3405,1.427 -0.6083,0.2214 -1.2161,0.182 -1.8167,-0.1233 -0.6024,-0.3025 -1.0868,-0.9612 -1.4556,-1.9741 L 211.17,91.1146 Z m -5.8374,3.5291 0.4729,1.2991 c 0.2857,0.7849 0.5862,1.3113 0.9002,1.5746 0.3153,0.2662 0.6767,0.3235 1.0829,0.1755 0.3172,-0.1154 0.5536,-0.3427 0.7129,-0.68 0.1559,-0.3388 0.0813,-0.9315 -0.2271,-1.7793 l -0.5337,-1.4661 z m 9.6795,7.3329 0.3631,1.2663 -5.7024,1.6353 6.7099,1.8782 0.3914,1.3649 -7.4761,2.1438 -0.3631,-1.2665 5.6665,-1.6248 -6.6742,-1.8884 -0.3912,-1.3649 z m 4.0927,3.5884 0.2483,0.8651 c -0.6066,0.0984 -1.1197,0.0139 -1.5355,-0.2568 -0.4173,-0.2679 -0.7132,-0.7007 -0.8839,-1.2965 -0.1723,-0.601 -0.1542,-1.1262 0.0559,-1.5741 0.2089,-0.4499 0.5992,-0.7934 1.1704,-1.0327 l 0.2483,0.8654 c -0.301,0.1565 -0.5012,0.3569 -0.6018,0.5964 -0.1026,0.2399 -0.1043,0.5242 -0.0108,0.8507 0.1097,0.3824 0.2665,0.6469 0.476,0.7974 0.2072,0.1514 0.4855,0.2146 0.8331,0.1851 z m -4.697,17.2483 0.0348,1.3056 c -0.9034,0.001 -1.6517,-0.2472 -2.2419,-0.7461 -0.5899,-0.4963 -0.9513,-1.1653 -1.0842,-2.0052 -0.1664,-1.0491 0.0428,-1.9505 0.6281,-2.696 0.5851,-0.7487 1.5197,-1.2255 2.8035,-1.429 0.83,-0.1312 1.5777,-0.108 2.2433,0.0675 0.6662,0.1777 1.1991,0.5213 1.5993,1.0352 0.3997,0.5111 0.6523,1.0987 0.7569,1.758 0.1321,0.8348 0.028,1.5523 -0.3107,2.1476 -0.3379,0.5978 -0.8816,1.0329 -1.6356,1.307 l -0.3957,-1.2359 c 0.4969,-0.2027 0.851,-0.4765 1.0644,-0.824 0.2106,-0.3473 0.2829,-0.7384 0.214,-1.173 -0.104,-0.6568 -0.4232,-1.1531 -0.9595,-1.4882 -0.5343,-0.3356 -1.3099,-0.4229 -2.3273,-0.2616 -1.0321,0.1635 -1.7515,0.4796 -2.1577,0.9516 -0.4042,0.4691 -0.557,1.0224 -0.4561,1.6594 0.0808,0.5111 0.3064,0.9107 0.6744,1.2044 0.3679,0.2937 0.8838,0.4346 1.55,0.4227 z m -5.6004,3.3009 10.7314,-0.7503 0.0836,1.1968 -1.0075,0.0705 c 0.4139,0.254 0.7328,0.5525 0.9548,0.8958 0.2219,0.3401 0.352,0.7648 0.3872,1.2708 0.0465,0.6633 -0.0848,1.2591 -0.3887,1.7889 -0.3061,0.5326 -0.7608,0.9482 -1.3637,1.2484 -0.6029,0.3024 -1.2748,0.4799 -2.0154,0.5318 -0.7932,0.0555 -1.5188,-0.0369 -2.1748,-0.279 -0.6559,-0.2398 -1.171,-0.6196 -1.5483,-1.1398 -0.3747,-0.5201 -0.5839,-1.0791 -0.6259,-1.6778 -0.0306,-0.4391 0.0341,-0.8371 0.1945,-1.1991 0.1599,-0.3619 0.3745,-0.6627 0.6406,-0.907 l -3.776,0.2641 z m 6.8915,0.7132 c -0.9972,0.0697 -1.7214,0.3234 -2.1719,0.7611 -0.4484,0.4371 -0.6533,0.9454 -0.6134,1.5188 0.0408,0.5837 0.3232,1.0678 0.8484,1.4496 0.523,0.3816 1.3034,0.5378 2.3406,0.4652 0.9901,-0.0692 1.7138,-0.3254 2.1796,-0.7662 0.4626,-0.4411 0.6755,-0.9448 0.6361,-1.5083 -0.0392,-0.561 -0.3357,-1.0392 -0.8896,-1.4338 -0.5539,-0.3948 -1.3322,-0.5561 -2.3298,-0.4864 z m -0.8841,12.9966 -0.1913,1.3595 c -0.7934,-0.2291 -1.404,-0.6373 -1.8338,-1.2249 -0.4271,-0.5899 -0.6341,-1.3362 -0.6185,-2.2385 0.0199,-1.1373 0.3855,-2.0336 1.097,-2.6864 0.7115,-0.6554 1.6997,-0.9706 2.9645,-0.9485 1.3096,0.023 2.3187,0.3782 3.0294,1.063 0.7106,0.6877 1.0579,1.5664 1.0392,2.6413 -0.0182,1.0398 -0.3881,1.8837 -1.107,2.5285 -0.7188,0.6475 -1.722,0.9601 -3.0041,0.9377 -0.0799,-0.001 -0.1976,-0.006 -0.3524,-0.0136 l 0.1012,-5.7991 c -0.8557,0.0323 -1.5148,0.2636 -1.9749,0.6905 -0.4626,0.4269 -0.6995,0.963 -0.7109,1.613 -0.008,0.4821 0.112,0.8971 0.3611,1.2438 0.2464,0.347 0.6466,0.6242 1.2005,0.8337 z m 2.2076,-4.2897 -0.0756,4.3418 c 0.6533,-0.0462 1.1488,-0.2049 1.4785,-0.4717 0.5145,-0.4113 0.7793,-0.9515 0.7909,-1.6188 0.0105,-0.6049 -0.1829,-1.1186 -0.5808,-1.5381 -0.3977,-0.4195 -0.9363,-0.6565 -1.613,-0.7132 z m 2.8979,8.7344 -0.4723,5.3994 -6.6668,-0.5831 -0.0731,0.8365 -3.2777,-0.2865 0.0941,-1.0783 2.1969,0.1922 0.5334,-6.0994 -2.1965,-0.1921 0.0947,-1.0809 3.2774,0.2869 -0.0604,0.6922 c 1.1744,1.0338 3.3571,1.6716 6.5503,1.9131 z m -1.1812,0.9984 c -2.507,-0.3172 -4.3333,-0.8686 -5.4791,-1.6563 l -0.3645,4.1666 5.5811,0.4884 z m 0.267,7.6271 -0.2287,1.2975 -5.8422,-1.0302 5.2072,4.6299 -0.2463,1.3983 -7.6592,-1.3507 0.2287,-1.2974 5.8054,1.0236 -5.1707,-4.6231 0.2463,-1.3983 z m -13.3954,12.0002 10.2875,3.1451 -0.3509,1.1474 -0.9658,-0.2953 c 0.2954,0.3858 0.4862,0.7786 0.5704,1.1786 0.0853,0.3971 0.0544,0.8399 -0.0939,1.3252 -0.1944,0.6358 -0.5306,1.1449 -1.004,1.5307 -0.4768,0.3875 -1.05,0.6126 -1.7206,0.6766 -0.6713,0.0667 -1.3621,-0.008 -2.0719,-0.2256 -0.7605,-0.2324 -1.4048,-0.5785 -1.9304,-1.0397 -0.5264,-0.459 -0.8713,-0.9984 -1.0369,-1.6189 -0.1635,-0.6202 -0.1587,-1.2169 0.0167,-1.7909 0.1287,-0.4207 0.332,-0.7691 0.6112,-1.0497 0.2792,-0.2806 0.587,-0.4847 0.9232,-0.6171 l -3.6198,-1.1067 z m 6.1781,3.1354 c -0.9561,-0.2922 -1.7229,-0.3146 -2.3003,-0.0677 -0.5751,0.2474 -0.9487,0.6483 -1.1168,1.1982 -0.1712,0.5595 -0.0811,1.1126 0.2724,1.6571 0.3515,0.544 1.0241,0.9692 2.0182,1.2731 0.9494,0.2902 1.717,0.3106 2.3097,0.066 0.5899,-0.246 0.9692,-0.6398 1.1344,-1.1801 0.1644,-0.538 0.0587,-1.0907 -0.3169,-1.6574 -0.3756,-0.5672 -1.0443,-0.9966 -2.0007,-1.2892 z m -7.0115,10.8723 c -0.2009,-0.61 -0.2962,-1.1554 -0.2877,-1.637 0.0116,-0.4833 0.1148,-0.9646 0.3087,-1.4445 0.3203,-0.7929 0.758,-1.3224 1.3176,-1.5925 0.5581,-0.2679 1.1406,-0.2807 1.7407,-0.038 0.3546,0.1431 0.6452,0.3523 0.8717,0.6324 0.2273,0.2781 0.3764,0.5834 0.4476,0.9142 0.0703,0.3333 0.0867,0.6797 0.0453,1.0428 -0.034,0.2642 -0.1176,0.6511 -0.2554,1.1588 -0.2806,1.0352 -0.4357,1.8193 -0.4592,2.3519 0.165,0.072 0.2704,0.1174 0.3146,0.1352 0.4984,0.2013 0.8975,0.228 1.1929,0.0774 0.4036,-0.1981 0.7287,-0.6088 0.9768,-1.2231 0.2324,-0.5749 0.3039,-1.0392 0.2137,-1.3966 -0.091,-0.3552 -0.3668,-0.7011 -0.8257,-1.0401 l 0.6471,-1.1273 c 0.466,0.3152 0.8088,0.6613 1.0214,1.0358 0.2151,0.3753 0.3123,0.8351 0.2916,1.3742 -0.0212,0.5389 -0.1553,1.1183 -0.4062,1.7393 -0.2491,0.6166 -0.5249,1.0849 -0.8237,1.4117 -0.3016,0.3257 -0.5967,0.5355 -0.8909,0.6296 -0.2934,0.0918 -0.6197,0.1057 -0.9859,0.0442 -0.2245,-0.0451 -0.6086,-0.1758 -1.1509,-0.3949 l -1.6294,-0.6585 c -1.1383,-0.4597 -1.8671,-0.7245 -2.1877,-0.792 -0.322,-0.0708 -0.6537,-0.0836 -0.9916,-0.0419 l 0.5162,-1.2773 c 0.303,-0.0233 0.6335,0.013 0.9884,0.1162 z m 2.7718,1.0012 c -0.003,-0.519 0.1125,-1.2461 0.3427,-2.1832 0.1315,-0.5318 0.1944,-0.9219 0.1876,-1.1645 -0.006,-0.2452 -0.0728,-0.4609 -0.2041,-0.6432 -0.1278,-0.1837 -0.2968,-0.3195 -0.5102,-0.4059 -0.3266,-0.1318 -0.6486,-0.1162 -0.9658,0.0417 -0.3146,0.1584 -0.5697,0.4759 -0.7616,0.951 -0.1903,0.4708 -0.2577,0.9314 -0.1993,1.381 0.0581,0.4496 0.2313,0.8351 0.519,1.1506 0.2225,0.2438 0.6043,0.4734 1.1421,0.6908 z m 1.9737,5.2693 -1.3328,2.7326 c -0.3277,0.6718 -0.6271,1.1432 -0.8972,1.4176 -0.2713,0.271 -0.6128,0.4522 -1.0267,0.5423 -0.4127,0.0879 -0.828,0.0329 -1.2458,-0.1709 -0.3328,-0.1625 -0.5908,-0.3745 -0.7699,-0.6341 -0.1806,-0.258 -0.2877,-0.5687 -0.3189,-0.9261 -0.2716,0.2766 -0.6083,0.4487 -1.016,0.5199 -0.4073,0.0711 -0.8149,0.006 -1.2282,-0.1959 -0.6423,-0.3663 -1.0182,-0.8442 -1.1279,-1.4292 -0.1108,-0.5879 0.0343,-1.2904 0.4343,-2.1104 l 1.5386,-3.155 z m -3.52,-0.248 -0.6157,1.2628 c -0.2466,0.5057 -0.3909,0.8637 -0.4292,1.0789 -0.0402,0.214 -0.0145,0.4351 0.0717,0.6633 0.087,0.2262 0.2441,0.3946 0.4669,0.5032 0.3682,0.1797 0.6902,0.1754 0.9612,-0.0151 0.273,-0.1893 0.5633,-0.6018 0.8711,-1.233 l 0.6355,-1.3031 z m -3.0739,-1.499 -0.7606,1.5594 c -0.3277,0.6718 -0.4759,1.1698 -0.4402,1.4958 0.032,0.3271 0.2384,0.5891 0.6114,0.7878 0.2245,0.1097 0.4666,0.1386 0.7288,0.0856 0.2611,-0.0508 0.4745,-0.1803 0.6367,-0.3875 0.1658,-0.2087 0.3725,-0.5695 0.6233,-1.084 l 0.6993,-1.4338 z m 2.4803,9.5021 -0.6798,1.1315 -2.7751,-1.6676 -1.8825,3.1332 2.7751,1.6673 -0.6786,1.1293 -6.6665,-4.0056 0.6786,-1.1293 2.9571,1.7767 1.8825,-3.1328 -2.9571,-1.7771 0.6798,-1.1313 z m -9.6922,13.9081 -0.8306,1.0259 -6.0443,-4.8946 0.8308,-1.0258 z m 4.6411,-5.7313 -0.8305,1.0255 -2.3604,-1.9114 -1.0511,1.298 c -0.6843,0.845 -1.3782,1.3641 -2.0761,1.5548 -0.6982,0.1908 -1.3366,0.0533 -1.9134,-0.4141 -0.5032,-0.4073 -0.7824,-0.9485 -0.83,-1.6209 -0.0513,-0.6718 0.2642,-1.4266 0.9422,-2.264 l 2.0753,-2.5625 z m -6.0313,-3.1862 -0.8702,1.0746 c -0.5255,0.6489 -0.822,1.1776 -0.8861,1.5823 -0.0655,0.4074 0.0714,0.7467 0.4073,1.0185 0.2625,0.2126 0.5792,0.2982 0.9502,0.2611 0.3708,-0.0408 0.8405,-0.4099 1.4083,-1.1112 l 0.9819,-1.2126 z m -6.3507,5.9786 0.8484,4.8685 4.5006,0.7815 -1.1651,1.1648 -2.1333,-0.4437 c -0.4031,-0.0884 -0.7373,-0.1644 -0.9987,-0.2352 0.076,0.3804 0.1375,0.7214 0.1854,1.0272 l 0.3731,2.2255 -1.1138,1.1137 -0.6893,-4.49 -4.955,-0.8646 1.1435,-1.1435 2.8389,0.5797 0.7622,0.1607 -0.7268,-3.6147 z"
         style="fill:#003d18;fill-opacity:1;fill-rule:evenodd;stroke:#000000;stroke-width:0.216;stroke-linecap:butt;stroke-linejoin:miter;stroke-dasharray:none"
         id="path1776" />
      <path
         d="m 107.1791,208.5304 -7.185,7.9796 -3.0098,-2.71 c -0.5295,-0.4768 -0.9111,-0.8677 -1.1446,-1.1687 -0.3334,-0.4181 -0.5503,-0.8385 -0.65,-1.2617 -0.1001,-0.4195 -0.0814,-0.8702 0.0533,-1.3445 0.136,-0.4765 0.3824,-0.9107 0.7387,-1.3062 0.6106,-0.6783 1.3444,-1.0601 2.1988,-1.142 0.8544,-0.0786 1.8473,0.3883 2.975,1.4037 l 2.0474,1.8433 2.9208,-3.2436 z m -4.8243,3.2355 -2.0639,-1.8584 c -0.682,-0.614 -1.2807,-0.9244 -1.796,-0.9275 -0.5154,-0.003 -0.9797,0.2248 -1.3944,0.6857 -0.3013,0.3345 -0.4754,0.6956 -0.5202,1.086 -0.045,0.39 0.0355,0.7452 0.2438,1.0703 0.1364,0.2072 0.4417,0.5256 0.921,0.9573 l 2.0418,1.8385 z m -3.0073,-10.7189 -6.044,4.8943 -0.7458,-0.9207 0.915,-0.741 c -0.6179,0.1111 -1.0777,0.123 -1.3756,0.0332 -0.2965,-0.0882 -0.5446,-0.2512 -0.7379,-0.4899 -0.2801,-0.3458 -0.4524,-0.7855 -0.5224,-1.3206 l 1.2384,-0.4173 c 0.0516,0.3696 0.1809,0.68 0.3839,0.9309 0.1825,0.2254 0.4124,0.3702 0.6913,0.4405 0.2807,0.0686 0.5695,0.0439 0.8697,-0.074 0.4564,-0.1794 0.9003,-0.4453 1.3334,-0.7962 l 3.1652,-2.5631 z m -11.8865,-0.1883 -1.2121,0.9136 -0.7943,-1.0544 1.2121,-0.9134 z m 7.3636,-5.5485 -6.2116,4.6806 -0.7943,-1.0542 6.2113,-4.6806 z m -3.3818,-4.2715 -6.8023,3.7706 -0.5709,-1.0298 0.9533,-0.5287 c -0.4512,-0.0297 -0.8779,-0.1647 -1.2753,-0.4076 -0.3997,-0.2415 -0.7265,-0.589 -0.9776,-1.0417 -0.2787,-0.5029 -0.4026,-0.9743 -0.3711,-1.4122 0.0306,-0.44 0.1953,-0.8283 0.4986,-1.1682 -1.093,-0.1001 -1.8788,-0.5791 -2.3564,-1.4406 -0.3745,-0.6757 -0.4737,-1.2982 -0.3011,-1.8686 0.1727,-0.57 0.6475,-1.0703 1.4236,-1.5006 l 4.6704,-2.5889 0.6352,1.1458 -4.2857,2.3757 c -0.4612,0.2557 -0.773,0.477 -0.9354,0.6638 -0.1585,0.1883 -0.2475,0.4148 -0.2639,0.6784 -0.0136,0.2647 0.0515,0.5318 0.1981,0.7962 0.2653,0.4788 0.6446,0.7864 1.1392,0.9261 0.4916,0.1392 1.0897,0.0165 1.7893,-0.3713 l 3.9535,-2.1915 0.6386,1.1523 -4.4189,2.4497 c -0.514,0.2849 -0.8467,0.5921 -0.9981,0.9221 -0.1519,0.3297 -0.1111,0.7072 0.1267,1.1358 0.1791,0.3238 0.4306,0.576 0.756,0.7555 0.3231,0.1814 0.684,0.2443 1.08,0.1848 0.3991,-0.0584 0.9074,-0.2599 1.5262,-0.6029 l 3.5294,-1.9562 z m -8.7386,-17.6783 -1.0593,0.428 c 1.0437,0.2336 1.7572,0.832 2.1467,1.7964 0.1715,0.4243 0.2517,0.8557 0.2381,1.2897 -0.0134,0.4343 -0.1092,0.7909 -0.2826,1.069 -0.1752,0.2809 -0.4258,0.5278 -0.7538,0.7438 -0.2216,0.146 -0.5913,0.3251 -1.1126,0.5357 l -4.4668,1.8048 -0.4935,-1.2217 3.9982,-1.6155 c 0.6398,-0.2585 1.0585,-0.4572 1.2615,-0.5958 0.2902,-0.2089 0.475,-0.4722 0.5604,-0.7951 0.0816,-0.3243 0.0476,-0.669 -0.1004,-1.0355 -0.1479,-0.366 -0.379,-0.6718 -0.6973,-0.9179 -0.3178,-0.2466 -0.667,-0.3699 -1.0423,-0.3716 -0.379,-0.003 -0.8768,0.1193 -1.491,0.3674 l -3.8639,1.5613 -0.4935,-1.2214 7.211,-2.9135 z m -3.966,-3.8693 -0.5771,-1.1857 c 0.4788,-0.222 0.8014,-0.5352 0.9712,-0.9371 0.168,-0.3992 0.1652,-0.8873 -0.0108,-1.4633 -0.1769,-0.5785 -0.4281,-0.9726 -0.7481,-1.1806 -0.322,-0.2075 -0.6426,-0.2636 -0.9581,-0.167 -0.2869,0.0876 -0.4714,0.2801 -0.5601,0.5791 -0.0598,0.2064 -0.0692,0.6798 -0.0315,1.4188 0.0479,0.9944 0.0437,1.6988 -0.0198,2.1075 -0.0607,0.4085 -0.2143,0.7532 -0.4592,1.0293 -0.245,0.2764 -0.5485,0.4711 -0.9122,0.5822 -0.332,0.1015 -0.6614,0.1188 -0.9905,0.0519 -0.3305,-0.0635 -0.6284,-0.2001 -0.8946,-0.4036 -0.2032,-0.1523 -0.4096,-0.3819 -0.6131,-0.6883 -0.2041,-0.309 -0.3654,-0.6568 -0.4839,-1.044 -0.1783,-0.5834 -0.2486,-1.1214 -0.2165,-1.6149 0.0323,-0.4935 0.1598,-0.8881 0.3826,-1.186 0.2248,-0.2988 0.5636,-0.5593 1.0199,-0.7852 l 0.5463,1.1795 c -0.3651,0.174 -0.6143,0.4283 -0.7475,0.7617 -0.1332,0.3336 -0.1247,0.7466 0.0252,1.2367 0.1769,0.5786 0.3988,0.9629 0.6653,1.1506 0.2676,0.1905 0.5301,0.2458 0.786,0.1675 0.1647,-0.0504 0.2946,-0.1474 0.3946,-0.2905 0.1049,-0.1443 0.1661,-0.3382 0.1897,-0.586 0.0065,-0.1406 8e-4,-0.5439 -0.0202,-1.212 -0.0337,-0.965 -0.03,-1.6456 0.0153,-2.0438 0.0426,-0.4 0.18,-0.7453 0.408,-1.0347 0.2281,-0.2891 0.5558,-0.4992 0.9861,-0.6307 0.4207,-0.1287 0.8533,-0.125 1.3008,0.005 0.4457,0.133 0.8411,0.3992 1.1852,0.7986 0.3444,0.3991 0.6046,0.8917 0.7829,1.4751 0.2963,0.9683 0.3206,1.7663 0.074,2.3959 -0.2469,0.6295 -0.7435,1.1344 -1.4899,1.5142 z m -11.3439,-17.6388 -1.503,0.2111 -0.1836,-1.3073 1.5029,-0.2112 z m 9.1304,-1.2833 -7.7018,1.0826 -0.1839,-1.3074 7.7017,-1.0825 z m -0.7141,-5.5533 -7.7666,0.407 -0.0621,-1.1835 1.1035,-0.0578 c -0.8841,-0.5269 -1.3541,-1.3283 -1.4105,-2.4043 -0.0247,-0.4692 0.0377,-0.9031 0.1845,-1.304 0.1491,-0.4033 0.3535,-0.7069 0.618,-0.9161 0.2616,-0.2115 0.5794,-0.3631 0.9496,-0.4626 0.2421,-0.0604 0.6676,-0.1078 1.2767,-0.1398 l 4.7761,-0.2503 0.0692,1.3181 -4.7259,0.2478 c -0.5344,0.028 -0.9338,0.0992 -1.1954,0.2151 -0.2594,0.1165 -0.4621,0.3098 -0.6055,0.5777 -0.1463,0.2704 -0.21,0.5794 -0.1916,0.9315 0.0292,0.5615 0.2344,1.0341 0.6103,1.425 0.3781,0.388 1.063,0.5553 2.0594,0.5028 l 4.2414,-0.2222 z m -1.5826,-13.4178 1.171,-0.1491 c 0.0644,0.3724 0.093,0.7061 0.0828,0.9983 -0.0167,0.4796 -0.1049,0.847 -0.2665,1.1067 -0.159,0.2571 -0.3653,0.4348 -0.6165,0.5337 -0.2486,0.099 -0.7702,0.1355 -1.5599,0.108 l -4.4719,-0.1562 -0.0338,0.9669 -1.0244,-0.0357 0.0337,-0.9669 -1.9264,-0.0672 -0.7435,-1.3393 2.7158,0.0949 0.0462,-1.3243 1.0245,0.0357 -0.0462,1.3243 4.5445,0.1588 c 0.3773,0.013 0.6179,-0.001 0.7271,-0.0425 0.1088,-0.0434 0.1964,-0.1157 0.265,-0.218 0.0663,-0.1029 0.1038,-0.2517 0.1106,-0.4468 0.0051,-0.1471 -0.0054,-0.3401 -0.0321,-0.5813 z m -0.9796,-8.8654 0.2622,-1.3476 c 0.7804,0.2702 1.3688,0.7098 1.7671,1.319 0.3957,0.6117 0.5635,1.3674 0.5006,2.268 -0.0794,1.1347 -0.4912,2.0106 -1.2362,2.6251 -0.7447,0.6171 -1.7481,0.8802 -3.0101,0.792 -1.3068,-0.0912 -2.2958,-0.4989 -2.9696,-1.22 -0.6738,-0.724 -0.9745,-1.6197 -0.8994,-2.6921 0.0726,-1.0374 0.4861,-1.8606 1.2376,-2.4669 0.752,-0.6092 1.77,-0.8689 3.0492,-0.7796 0.08,0.006 0.197,0.0165 0.351,0.0323 l -0.4045,5.7858 c 0.8563,0.0125 1.5267,-0.1839 2.0086,-0.5865 0.4841,-0.4019 0.7489,-0.9246 0.7942,-1.5732 0.0335,-0.4813 -0.0649,-0.9017 -0.2953,-1.2611 -0.2282,-0.3592 -0.6132,-0.6571 -1.1554,-0.8952 z m -2.4293,4.1681 0.303,-4.3319 c -0.6551,0.0119 -1.1582,0.1445 -1.5012,0.3937 -0.5355,0.3838 -0.828,0.9093 -0.8745,1.5752 -0.0422,0.6035 0.1242,1.1268 0.4995,1.5664 0.3753,0.4397 0.9005,0.7047 1.5732,0.7966 z m 5.6832,-9.1622 -7.7018,-1.0822 0.165,-1.1733 1.1659,0.1638 c -0.5029,-0.3761 -0.8249,-0.7041 -0.9626,-0.9836 -0.1378,-0.2769 -0.1877,-0.5692 -0.1449,-0.8736 0.0618,-0.4405 0.2656,-0.8666 0.6097,-1.2827 l 1.1495,0.6211 c -0.235,0.29 -0.3739,0.5961 -0.419,0.9156 -0.0402,0.2871 0.0105,0.5541 0.1494,0.8061 0.1415,0.252 0.3563,0.4462 0.6472,0.5857 0.4424,0.2112 0.9396,0.3543 1.4918,0.432 l 4.0329,0.5669 z m 6.118,-14.3549 -10.2311,-3.3245 0.3708,-1.1409 0.9606,0.3121 c -0.2885,-0.3906 -0.4725,-0.7869 -0.5499,-1.1883 -0.0782,-0.3986 -0.0397,-0.8408 0.1171,-1.3235 0.2055,-0.6324 0.5505,-1.1356 1.0307,-1.5131 0.4833,-0.379 1.0604,-0.5939 1.7319,-0.6463 0.6724,-0.0547 1.3618,0.0323 2.0679,0.2616 0.7563,0.2458 1.3944,0.6032 1.912,1.0735 0.5181,0.468 0.8538,1.0134 1.0085,1.6367 0.1525,0.6228 0.1372,1.2195 -0.0482,1.7904 -0.136,0.4184 -0.3452,0.7631 -0.6292,1.0389 -0.2841,0.2755 -0.5956,0.4742 -0.9341,0.6009 l 3.6,1.1696 z m -6.1226,-3.2431 c 0.9508,0.309 1.7175,0.345 2.2989,0.108 0.5794,-0.2373 0.9601,-0.6316 1.1376,-1.1784 0.1808,-0.5564 0.1006,-1.1109 -0.2435,-1.6619 -0.3419,-0.5497 -1.0069,-0.9868 -1.9959,-1.3079 -0.9439,-0.3068 -1.711,-0.3405 -2.308,-0.1063 -0.5941,0.2355 -0.9802,0.6227 -1.1548,1.1602 -0.1738,0.5349 -0.078,1.0893 0.288,1.6628 0.3654,0.5734 1.0267,1.0145 1.9777,1.3235 z m 7.9852,-12.689 c 0.169,0.6196 0.2353,1.1693 0.2019,1.6497 -0.0372,0.4819 -0.1653,0.9576 -0.3841,1.4264 -0.3612,0.775 -0.8263,1.281 -1.3989,1.5214 -0.5718,0.2384 -1.154,0.2205 -1.7408,-0.053 -0.3464,-0.1616 -0.6253,-0.3855 -0.8373,-0.6772 -0.2124,-0.2897 -0.3453,-0.6024 -0.3989,-0.9366 -0.0527,-0.3365 -0.0513,-0.6831 0.0094,-1.0437 0.0476,-0.2619 0.1513,-0.644 0.3158,-1.1438 0.3344,-1.019 0.53,-1.7937 0.5813,-2.3244 -0.161,-0.0808 -0.2639,-0.1315 -0.307,-0.1516 -0.4869,-0.2274 -0.8844,-0.2747 -1.1871,-0.1398 -0.4133,0.1769 -0.7597,0.5698 -1.0398,1.1701 -0.2619,0.5622 -0.3577,1.0222 -0.2863,1.3839 0.0723,0.3592 0.3297,0.7192 0.7699,1.0817 l -0.7049,1.0919 c -0.4488,-0.339 -0.773,-0.7027 -0.9658,-1.0876 -0.1953,-0.3861 -0.2684,-0.8507 -0.2191,-1.3879 0.049,-0.5369 0.2134,-1.1086 0.4966,-1.7158 0.2809,-0.6026 0.5808,-1.0559 0.8963,-1.3666 0.3184,-0.3092 0.6239,-0.5034 0.9227,-0.5819 0.2979,-0.0766 0.6245,-0.0732 0.9867,0.0074 0.222,0.0569 0.5987,0.2074 1.1288,0.4546 l 1.5928,0.7427 c 1.1126,0.519 1.8266,0.8215 2.1433,0.9057 0.3174,0.0876 0.6482,0.1173 0.9878,0.0938 l -0.5822,1.2484 c -0.3039,0.0074 -0.6321,-0.0462 -0.9811,-0.1678 z m -2.7156,-1.1449 c -0.0238,0.5184 -0.1774,1.2384 -0.4566,2.1622 -0.159,0.5242 -0.2424,0.9105 -0.2481,1.1534 -0.0065,0.245 0.0485,0.4638 0.1701,0.6529 0.1179,0.1902 0.2795,0.3344 0.4882,0.432 0.3194,0.1488 0.6417,0.1499 0.9666,0.009 0.3225,-0.1417 0.5941,-0.4456 0.8107,-0.9102 0.2146,-0.46 0.3061,-0.9164 0.2712,-1.3685 -0.0345,-0.4522 -0.1873,-0.8462 -0.4583,-1.1764 -0.2095,-0.2549 -0.5786,-0.5043 -1.1041,-0.7495 z m 6.0197,-3.2468 -6.7354,-3.8889 0.5924,-1.0261 1.0197,0.5887 c -0.3252,-0.5369 -0.5012,-0.9618 -0.5242,-1.2725 -0.0238,-0.3084 0.0394,-0.5981 0.1931,-0.8642 0.2225,-0.3853 0.5709,-0.7039 1.0457,-0.961 l 0.8331,1.0066 c -0.3266,0.1806 -0.5701,0.4127 -0.7314,0.6919 -0.1448,0.2512 -0.1978,0.5179 -0.1635,0.8034 0.0368,0.2866 0.1632,0.5473 0.3807,0.7855 0.3311,0.3617 0.7387,0.6806 1.2214,0.9595 l 3.5272,2.0361 z m 4.7931,-11.9132 0.9187,-1.0202 c 0.5298,0.6335 0.8079,1.3133 0.8357,2.0409 0.0241,0.728 -0.2214,1.4622 -0.7393,2.2017 -0.6523,0.9318 -1.4565,1.4703 -2.4115,1.6135 -0.9564,0.1454 -1.9519,-0.1457 -2.9882,-0.8714 -1.0729,-0.7512 -1.7107,-1.6101 -1.9171,-2.5753 -0.2044,-0.9674 -0.0011,-1.8901 0.6154,-2.7705 0.5967,-0.8521 1.3751,-1.3448 2.3318,-1.4775 0.9581,-0.1346 1.9647,0.167 3.0152,0.9026 0.0655,0.0459 0.1604,0.1154 0.284,0.2083 l -3.3267,4.7512 c 0.7279,0.4516 1.4034,0.6284 2.0239,0.5318 0.6219,-0.0953 1.1183,-0.4071 1.491,-0.9397 0.2767,-0.3952 0.4088,-0.8065 0.3963,-1.2331 -0.0105,-0.4255 -0.1871,-0.879 -0.5292,-1.3623 z m -4.229,2.3216 2.4908,-3.5572 c -0.5675,-0.3272 -1.0673,-0.4726 -1.4896,-0.4357 -0.6565,0.0533 -1.1781,0.3532 -1.5608,0.9 -0.3469,0.4955 -0.4739,1.0295 -0.3787,1.5996 0.0953,0.5703 0.4091,1.0678 0.9383,1.4933 z m 7.287,-6.1864 0.7382,-1.0927 c 0.4317,0.3039 0.8642,0.4263 1.2974,0.3724 0.4297,-0.0538 0.8509,-0.3004 1.2617,-0.7409 0.4127,-0.4422 0.6281,-0.8569 0.6483,-1.2379 0.0187,-0.3827 -0.093,-0.6883 -0.3343,-0.9133 -0.2194,-0.2047 -0.4782,-0.2682 -0.7815,-0.1956 -0.2089,0.0513 -0.6236,0.2797 -1.2447,0.682 -0.837,0.5386 -1.4493,0.8872 -1.8348,1.0369 -0.3841,0.1517 -0.7597,0.1908 -1.1211,0.1168 -0.3617,-0.074 -0.6823,-0.2395 -0.9604,-0.4989 -0.254,-0.2367 -0.4334,-0.5134 -0.54,-0.832 -0.1106,-0.318 -0.1412,-0.6443 -0.0978,-0.9765 0.03,-0.252 0.1259,-0.5457 0.2894,-0.8748 0.1656,-0.3314 0.3861,-0.6452 0.6622,-0.9414 0.4161,-0.4461 0.847,-0.7758 1.2903,-0.9949 0.4436,-0.2189 0.849,-0.3056 1.2184,-0.2617 0.3713,0.0454 0.7662,0.2084 1.1899,0.491 l -0.7483,1.0624 c -0.3334,-0.229 -0.6781,-0.3177 -1.0332,-0.2662 -0.3558,0.0513 -0.709,0.2651 -1.0588,0.6401 -0.4124,0.4422 -0.6341,0.8269 -0.6636,1.1514 -0.0311,0.3269 0.0522,0.582 0.2478,0.7645 0.1261,0.1177 0.2752,0.1815 0.449,0.1965 0.1774,0.0187 0.3759,-0.0252 0.6024,-0.1287 0.125,-0.0646 0.4714,-0.2713 1.0397,-0.6236 0.8186,-0.5114 1.41,-0.8487 1.7776,-1.0086 0.3677,-0.163 0.7353,-0.2166 1.0998,-0.1638 0.3646,0.0527 0.7101,0.2315 1.0395,0.5385 0.3217,0.2999 0.5346,0.6764 0.646,1.1288 0.108,0.4527 0.0749,0.9281 -0.0989,1.4258 -0.1735,0.4978 -0.47,0.9698 -0.8861,1.4156 -0.6905,0.7407 -1.3691,1.1608 -2.0378,1.2617 -0.6687,0.1012 -1.3541,-0.0762 -2.0563,-0.5329 z"
         style="fill:#003d18;fill-opacity:1;fill-rule:evenodd;stroke:#000000;stroke-width:0.216;stroke-linecap:butt;stroke-linejoin:miter;stroke-dasharray:none"
         id="path1778" />
    </g>
  </g>
</svg>
