<?xml version="1.0" encoding="utf-8"?>
<!-- Generator: Adobe Illustrator 26.0.1, SVG Export Plug-In . SVG Version: 6.00 Build 0)  -->
<svg version="1.1" id="Слой_1" xmlns="http://www.w3.org/2000/svg" xmlns:xlink="http://www.w3.org/1999/xlink" x="0px" y="0px"
	 viewBox="0 0 20 22" style="enable-background:new 0 0 20 22;" xml:space="preserve">
<g>
	<path d="M19.9,4.6c0,0,0-0.1-0.1-0.1c0,0,0-0.1-0.1-0.1l-3-4C16.6,0.1,16.3,0,16,0H4C3.7,0,3.4,0.1,3.2,0.4l-3,4c0,0,0,0.1-0.1,0.1
		c0,0,0,0.1-0.1,0.1C0,4.8,0,4.9,0,5v14c0,0.8,0.3,1.6,0.9,2.1C1.4,21.7,2.2,22,3,22h14c0.8,0,1.6-0.3,2.1-0.9S20,19.8,20,19V5
		C20,4.9,20,4.8,19.9,4.6z M4.5,2h11L17,4H3L4.5,2z M17.7,19.7C17.5,19.9,17.3,20,17,20H3c-0.3,0-0.5-0.1-0.7-0.3
		C2.1,19.5,2,19.3,2,19V6h16v13C18,19.3,17.9,19.5,17.7,19.7z"/>
	<path d="M14,8c-0.6,0-1,0.4-1,1c0,0.8-0.3,1.6-0.9,2.1c-1.1,1.1-3.1,1.1-4.2,0C7.3,10.6,7,9.8,7,9c0-0.6-0.4-1-1-1S5,8.4,5,9
		c0,1.3,0.5,2.6,1.5,3.5C7.4,13.5,8.7,14,10,14c1.3,0,2.6-0.5,3.5-1.5C14.5,11.6,15,10.3,15,9C15,8.4,14.6,8,14,8z"/>
</g>
</svg>
