<?xml version="1.0" encoding="utf-8"?>
<!-- Generator: Adobe Illustrator 26.0.1, SVG Export Plug-In . SVG Version: 6.00 Build 0)  -->
<svg version="1.1" id="Слой_1" xmlns="http://www.w3.org/2000/svg" xmlns:xlink="http://www.w3.org/1999/xlink" x="0px" y="0px"
	 viewBox="0 0 22 20" style="enable-background:new 0 0 22 20;" xml:space="preserve">
<path d="M15.5,0c-1.8,0-3.1,0.5-4.5,1.6C9.6,0.5,8.3,0,6.5,0C2.9,0,0,2.9,0,6.5c0,2.7,1.7,4.6,3.3,6.2l7,7c0.2,0.2,0.5,0.3,0.7,0.3
	s0.5-0.1,0.7-0.3l7-7c1.6-1.6,3.3-3.6,3.3-6.2C22,2.9,19.1,0,15.5,0z M17.3,11.3L17.3,11.3L11,17.6l-6.3-6.3C3.3,9.9,2,8.4,2,6.5
	C2,4,4,2,6.5,2C8,2,9,2.4,10.3,3.7c0.4,0.4,1,0.4,1.4,0C13,2.4,14,2,15.5,2C18,2,20,4,20,6.5C20,8.4,18.7,9.9,17.3,11.3z"/>
</svg>
