<?xml version="1.0" encoding="utf-8"?>
<!-- Generator: Adobe Illustrator 26.0.1, SVG Export Plug-In . SVG Version: 6.00 Build 0)  -->
<svg version="1.1" id="Слой_1" xmlns="http://www.w3.org/2000/svg" xmlns:xlink="http://www.w3.org/1999/xlink" x="0px" y="0px"
	 viewBox="0 0 24 24" style="enable-background:new 0 0 24 24;" xml:space="preserve">
<g>
	<path d="M4,6h2.3c0.3,0.6,1,1,1.7,1s1.4-0.4,1.7-1H20c0.6,0,1-0.4,1-1s-0.4-1-1-1H9.7C9.4,3.4,8.7,3,8,3S6.6,3.4,6.3,4H4
		C3.4,4,3,4.4,3,5S3.4,6,4,6z"/>
	<path d="M20,11h-2.3c-0.3-0.6-1-1-1.7-1s-1.4,0.4-1.7,1H4c-0.6,0-1,0.4-1,1s0.4,1,1,1h10.3c0.3,0.6,1,1,1.7,1s1.4-0.4,1.7-1H20
		c0.6,0,1-0.4,1-1S20.6,11,20,11z"/>
	<path d="M20,18h-6.3c-0.3-0.6-1-1-1.7-1c-0.7,0-1.4,0.4-1.7,1H4c-0.6,0-1,0.4-1,1s0.4,1,1,1h6.3c0.3,0.6,1,1,1.7,1
		c0.7,0,1.4-0.4,1.7-1H20c0.6,0,1-0.4,1-1S20.6,18,20,18z"/>
</g>
</svg>
