<?xml version="1.0" encoding="utf-8"?>
<!-- Generator: Adobe Illustrator 26.0.1, SVG Export Plug-In . SVG Version: 6.00 Build 0)  -->
<svg version="1.1" id="Слой_1" xmlns="http://www.w3.org/2000/svg" xmlns:xlink="http://www.w3.org/1999/xlink" x="0px" y="0px"
	 viewBox="0 0 24 24" style="enable-background:new 0 0 24 24;" xml:space="preserve">
<style type="text/css">
	.st0{fill-rule:evenodd;clip-rule:evenodd;}
</style>
<path class="st0" d="M7.1,5.6c-0.4-0.4-1-0.4-1.4,0c-0.4,0.4-0.4,1,0,1.4l4.9,4.9l-4.9,4.9c-0.4,0.4-0.4,1,0,1.4
	c0.4,0.4,1,0.4,1.4,0l4.9-4.9l4.9,4.9c0.4,0.4,1,0.4,1.4,0c0.4-0.4,0.4-1,0-1.4L13.4,12l4.9-4.9c0.4-0.4,0.4-1,0-1.4
	c-0.4-0.4-1-0.4-1.4,0L12,10.6L7.1,5.6z"/>
</svg>
