<?xml version="1.0" encoding="utf-8"?>
<!-- Generator: Adobe Illustrator 26.0.1, SVG Export Plug-In . SVG Version: 6.00 Build 0)  -->
<svg version="1.1" id="Слой_1" xmlns="http://www.w3.org/2000/svg" xmlns:xlink="http://www.w3.org/1999/xlink" x="0px" y="0px"
	 viewBox="0 0 24 24" style="enable-background:new 0 0 24 24;" xml:space="preserve">
<style type="text/css">
	.st0{fill-rule:evenodd;clip-rule:evenodd;}
</style>
<g>
	<path class="st0" d="M9.5,4h-4C4.7,4,4,4.7,4,5.5v4C4,10.3,4.7,11,5.5,11h4c0.8,0,1.5-0.7,1.5-1.5v-4C11,4.7,10.3,4,9.5,4z
		 M9.5,9.5h-4v-4h4V9.5z"/>
	<path class="st0" d="M18.5,4h-4C13.7,4,13,4.7,13,5.5v4c0,0.8,0.7,1.5,1.5,1.5h4c0.8,0,1.5-0.7,1.5-1.5v-4C20,4.7,19.3,4,18.5,4z
		 M18.5,9.5h-4v-4h4V9.5z"/>
	<path class="st0" d="M9.5,13h-4C4.7,13,4,13.7,4,14.5v4C4,19.3,4.7,20,5.5,20h4c0.8,0,1.5-0.7,1.5-1.5v-4C11,13.7,10.3,13,9.5,13z
		 M9.5,18.5h-4v-4h4V18.5z"/>
	<path class="st0" d="M18.5,13h-4c-0.8,0-1.5,0.7-1.5,1.5v4c0,0.8,0.7,1.5,1.5,1.5h4c0.8,0,1.5-0.7,1.5-1.5v-4
		C20,13.7,19.3,13,18.5,13z M18.5,18.5h-4v-4h4V18.5z"/>
</g>
</svg>
