<?xml version="1.0" encoding="utf-8"?>
<!-- Generator: Adobe Illustrator 26.0.1, SVG Export Plug-In . SVG Version: 6.00 Build 0)  -->
<svg version="1.1" id="Слой_1" xmlns="http://www.w3.org/2000/svg" xmlns:xlink="http://www.w3.org/1999/xlink" x="0px" y="0px"
	 viewBox="0 0 24 24" style="enable-background:new 0 0 24 24;" xml:space="preserve">
<style type="text/css">
	.st0{fill-rule:evenodd;clip-rule:evenodd;}
</style>
<g>
	<path class="st0" d="M19.5,4h-15C3.7,4,3,4.7,3,5.5v4C3,10.3,3.7,11,4.5,11h15c0.8,0,1.5-0.7,1.5-1.5v-4C21,4.7,20.3,4,19.5,4z
		 M19.5,9.5h-15v-4h15V9.5z"/>
	<path class="st0" d="M19.5,13h-15C3.7,13,3,13.7,3,14.5v4C3,19.3,3.7,20,4.5,20h15c0.8,0,1.5-0.7,1.5-1.5v-4
		C21,13.7,20.3,13,19.5,13z M19.5,18.5h-15v-4h15V18.5z"/>
</g>
</svg>
