<?xml version="1.0" encoding="utf-8"?>
<!-- Generator: Adobe Illustrator 26.0.1, SVG Export Plug-In . SVG Version: 6.00 Build 0)  -->
<svg version="1.1" id="Слой_1" xmlns="http://www.w3.org/2000/svg" xmlns:xlink="http://www.w3.org/1999/xlink" x="0px" y="0px"
	 viewBox="0 0 24 24" style="enable-background:new 0 0 24 24;" xml:space="preserve">
<path d="M17.5,6.8h-2V6.7c0-1.3-1.2-2.4-2.6-2.4h-1.8c-1.4,0-2.6,1.1-2.6,2.4v0.1h-2c-1.4,0-2.6,1.1-2.6,2.4v8.2
	c0,1.3,1.2,2.4,2.6,2.4h11c1.4,0,2.6-1.1,2.6-2.4V9.1C20.1,7.8,18.9,6.8,17.5,6.8z M10,6.7c0-0.5,0.5-0.9,1.1-0.9h1.8
	c0.6,0,1.1,0.4,1.1,0.9v0.1L10,6.7L10,6.7z M18.6,17.3c0,0.5-0.5,0.9-1.1,0.9h-11c-0.6,0-1.1-0.4-1.1-0.9v-2.7
	c0.3,0.1,0.7,0.2,1.1,0.2h4.7v0.9c0,0.4,0.3,0.8,0.8,0.8s0.8-0.3,0.8-0.8v-0.9h4.7c0.4,0,0.7-0.1,1.1-0.2V17.3z M18.6,12.4
	c0,0.5-0.5,0.9-1.1,0.9h-4.7v-0.9c0-0.4-0.3-0.8-0.8-0.8s-0.8,0.3-0.8,0.8v0.9H6.5c-0.6,0-1.1-0.4-1.1-0.9V9.1
	c0-0.5,0.5-0.9,1.1-0.9h11c0.6,0,1.1,0.4,1.1,0.9V12.4z"/>
</svg>
