<?xml version="1.0" encoding="utf-8"?>
<!-- Generator: Adobe Illustrator 26.0.1, SVG Export Plug-In . SVG Version: 6.00 Build 0)  -->
<svg version="1.1" id="Слой_1" xmlns="http://www.w3.org/2000/svg" xmlns:xlink="http://www.w3.org/1999/xlink" x="0px" y="0px"
	 viewBox="0 0 24 24" style="enable-background:new 0 0 24 24;" xml:space="preserve">
<path d="M19.8,5.8C19.3,5.3,18.6,5,18,5H6C5.4,5,4.7,5.3,4.2,5.8C3.8,6.3,3.5,6.9,3.5,7.6v8.8c0,0.7,0.3,1.4,0.7,1.9
	C4.7,18.7,5.4,19,6,19H18c0.7,0,1.3-0.3,1.8-0.8c0.5-0.5,0.7-1.2,0.7-1.9V7.6C20.5,6.9,20.2,6.3,19.8,5.8z M17.4,6.8L12,10.9
	L6.6,6.8H17.4z M18.8,16.4c0,0.2-0.1,0.5-0.2,0.6c-0.2,0.2-0.4,0.3-0.6,0.3H6c-0.2,0-0.4-0.1-0.6-0.3c-0.2-0.2-0.2-0.4-0.2-0.6V7.8
	l6.3,4.9c0.1,0.1,0.3,0.2,0.5,0.2s0.4-0.1,0.5-0.2l6.3-4.9V16.4z"/>
</svg>
