<?xml version="1.0" encoding="utf-8"?>
<!-- Generator: Adobe Illustrator 26.0.1, SVG Export Plug-In . SVG Version: 6.00 Build 0)  -->
<svg version="1.1" id="Слой_1" xmlns="http://www.w3.org/2000/svg" xmlns:xlink="http://www.w3.org/1999/xlink" x="0px" y="0px"
	 viewBox="0 0 24 24" style="enable-background:new 0 0 24 24;" xml:space="preserve">
<path d="M20.8,16.7c0-1-0.7-1.7-1.7-2.6c-0.2-0.2-0.5-0.4-0.7-0.7c-1.3-1.3-2.4-0.9-3.2-0.6c-0.8,0.3-1.6,0.5-3.1-1
	c-1.5-1.5-1.3-2.3-1-3.1c0.3-0.8,0.7-1.9-0.6-3.2C10.3,5.4,10,5.1,9.8,4.9C9,4,8.3,3.3,7.3,3.3C6.4,3.3,5.6,3.7,4.4,5
	c0,0-0.1,0.1-0.1,0.1c-0.3,0.3-1,1-1,2.5c0,2.1,1.7,4.9,5,8.2c3.3,3.3,6.1,5,8.2,5c0,0,0,0,0,0c1.4,0,2.2-0.8,2.5-1l-0.5-0.5
	l0.6,0.4C20.3,18.4,20.8,17.5,20.8,16.7z M18,18.5c0,0-0.1,0.1-0.2,0.1c-0.2,0.2-0.6,0.6-1.4,0.6c0,0,0,0,0,0
	c-1.2,0-3.4-0.8-7.2-4.6c-3.8-3.8-4.6-6-4.6-7.2c0-0.8,0.4-1.2,0.6-1.4C5.4,6.1,5.4,6,5.4,6c0,0,0,0,0,0c0.9-0.9,1.5-1.3,1.8-1.3
	c0,0,0,0,0,0c0.4,0,0.8,0.5,1.5,1.2C9,6.2,9.2,6.4,9.5,6.7c0.6,0.6,0.5,0.9,0.3,1.6c-0.5,1.3-0.7,2.6,1.3,4.7c2,2,3.4,1.8,4.7,1.3
	c0.7-0.3,1-0.3,1.6,0.3c0.3,0.3,0.5,0.5,0.7,0.7c0.7,0.6,1.2,1.1,1.2,1.5C19.3,17.1,18.8,17.7,18,18.5z"/>
</svg>
