<?xml version="1.0" encoding="utf-8"?>
<!-- Generator: Adobe Illustrator 26.0.1, SVG Export Plug-In . SVG Version: 6.00 Build 0)  -->
<svg version="1.1" id="Слой_1" xmlns="http://www.w3.org/2000/svg" xmlns:xlink="http://www.w3.org/1999/xlink" x="0px" y="0px"
	 viewBox="0 0 24 24" style="enable-background:new 0 0 24 24;" xml:space="preserve">
<g>
	<path d="M18.5,9.7h-0.5c0,0-0.1,0-0.1-0.1l0.3-0.3c0.3-0.3,0.5-0.7,0.5-1.1c0-0.4-0.2-0.8-0.5-1.1L17.1,6c-0.6-0.6-1.6-0.6-2.2,0
		l-0.3,0.3c0,0-0.1,0-0.2,0c-0.1,0-0.1-0.1-0.1-0.1V5.8c0-0.8-0.7-1.5-1.6-1.5h-1.6c-0.9,0-1.6,0.7-1.6,1.5l0,0.4c0,0,0,0-0.1,0.1
		c-0.1,0-0.1,0-0.2,0L9.1,6C8.5,5.4,7.5,5.4,6.9,6L5.7,7.1C5.4,7.3,5.2,7.7,5.2,8.2c0,0.4,0.2,0.8,0.5,1.1L6,9.6
		c0,0-0.1,0.1-0.1,0.1H5.5c-0.9,0-1.6,0.7-1.6,1.5v1.6c0,0.8,0.7,1.5,1.6,1.5h0.5c0,0,0.1,0,0.1,0.1l-0.3,0.3
		c-0.3,0.3-0.5,0.7-0.5,1.1s0.2,0.8,0.5,1.1L6.9,18c0.6,0.6,1.6,0.6,2.2,0l0.3-0.3c0,0,0.1,0,0.2,0c0.1,0,0.1,0.1,0.1,0.1v0.4
		c0,0.8,0.7,1.5,1.6,1.5h1.6c0.9,0,1.6-0.7,1.6-1.5l0-0.4c0,0,0,0,0.1-0.1c0.1,0,0.1,0,0.2,0l0.3,0.3c0.6,0.6,1.6,0.6,2.2,0l1.2-1.1
		c0.3-0.3,0.5-0.7,0.5-1.1s-0.2-0.8-0.5-1.1L18,14.4c0,0,0.1-0.1,0.1-0.1h0.5c0.9,0,1.6-0.7,1.6-1.5v-1.6
		C20.1,10.4,19.4,9.7,18.5,9.7z M18.5,12.8h-0.5c-0.6,0-1.2,0.4-1.5,1c-0.3,0.6-0.1,1.3,0.3,1.7l0.3,0.3L16.1,17c0,0-0.1,0-0.1,0
		l-0.3-0.3c-0.5-0.4-1.1-0.6-1.7-0.3c-0.6,0.2-1,0.8-1,1.4l-0.1,0.5l-1.7,0v-0.4c0-0.6-0.4-1.2-1-1.4c-0.2-0.1-0.4-0.1-0.6-0.1
		c-0.4,0-0.8,0.1-1.1,0.4L8,17c0,0-0.1,0-0.1,0l-1.2-1.1l0.3-0.3c0.5-0.4,0.6-1.1,0.3-1.7c-0.3-0.6-0.8-1-1.5-1l-0.5,0l0.1-1.6h0.5
		c0.6,0,1.2-0.4,1.5-1c0.3-0.6,0.1-1.3-0.3-1.7L6.7,8.1L7.9,7C7.9,7,8,7,8,7l0.3,0.3c0.4,0.4,1.1,0.6,1.7,0.3c0.6-0.2,1-0.8,1-1.4
		l0-0.4c0,0,0,0,0.1,0l1.7,0v0.4c0,0.6,0.4,1.2,1,1.4c0.6,0.2,1.3,0.1,1.7-0.3L16,7c0,0,0.1,0,0.1,0l1.2,1.1l-0.3,0.3
		c-0.5,0.4-0.6,1.1-0.3,1.7c0.3,0.6,0.8,1,1.5,1l0.5,0L18.5,12.8z"/>
	<path d="M12,9.7c-1.3,0-2.4,1-2.4,2.3s1.1,2.3,2.4,2.3c1.3,0,2.4-1,2.4-2.3S13.3,9.7,12,9.7z M12,12.8c-0.5,0-0.9-0.4-0.9-0.8
		s0.4-0.8,0.9-0.8s0.9,0.4,0.9,0.8S12.5,12.8,12,12.8z"/>
</g>
</svg>
