<?xml version="1.0" encoding="utf-8"?>
<!-- Generator: Adobe Illustrator 26.0.1, SVG Export Plug-In . SVG Version: 6.00 Build 0)  -->
<svg version="1.1" id="Слой_1" xmlns="http://www.w3.org/2000/svg" xmlns:xlink="http://www.w3.org/1999/xlink" x="0px" y="0px"
	 viewBox="0 0 24 24" style="enable-background:new 0 0 24 24;" xml:space="preserve">
<style type="text/css">
	.st0{fill-rule:evenodd;clip-rule:evenodd;}
</style>
<path class="st0" d="M4.6,5.5c1-1,2.3-1.5,3.7-1.5c0.8,0,1.5,0.1,2.2,0.4c0.5,0.2,1,0.5,1.4,0.9c0.5-0.4,0.9-0.7,1.4-0.9
	C14.2,4.1,14.9,4,15.7,4c1.4,0,2.7,0.5,3.7,1.5c1,1,1.6,2.3,1.6,3.7c0,2.2-1.5,3.8-2.7,5l-5.7,5.6c-0.3,0.3-0.8,0.3-1.1,0l-5.7-5.6
	C4.5,13.1,3,11.4,3,9.2C3,7.8,3.6,6.5,4.6,5.5z M8.3,5.7c-1,0-1.9,0.4-2.6,1.1C5,7.4,4.6,8.3,4.6,9.2c0,1.4,1,2.6,2.2,3.8l0,0l5.2,5
	l5.2-5c1.2-1.2,2.2-2.3,2.2-3.8c0-0.9-0.4-1.8-1.1-2.5c-0.7-0.7-1.6-1.1-2.6-1.1c-0.6,0-1.1,0.1-1.6,0.3c-0.5,0.2-0.9,0.5-1.5,1.1
	c-0.3,0.3-0.8,0.3-1.1,0c-0.6-0.5-1-0.9-1.5-1.1C9.5,5.8,9,5.7,8.3,5.7z"/>
</svg>
