<?xml version="1.0" encoding="utf-8"?>
<!-- Generator: Adobe Illustrator 26.0.1, SVG Export Plug-In . SVG Version: 6.00 Build 0)  -->
<svg version="1.1" id="Слой_1" xmlns="http://www.w3.org/2000/svg" xmlns:xlink="http://www.w3.org/1999/xlink" x="0px" y="0px"
	 viewBox="0 0 24 24" style="enable-background:new 0 0 24 24;" xml:space="preserve">
<g>
	<path d="M10.6,16.4c0.4,0,0.8-0.4,0.8-0.8v-4.3c0-0.4-0.3-0.8-0.8-0.8c-0.4,0-0.8,0.4-0.8,0.8v4.3C9.8,16,10.2,16.4,10.6,16.4z"/>
	<path d="M18.2,6.9h-2.7V6.2c0-0.6-0.2-1.2-0.6-1.6C14.5,4.2,14,4,13.4,4h-2.8C10,4,9.5,4.2,9.1,4.7c-0.4,0.4-0.6,1-0.6,1.6v0.6H5.8
		C5.3,6.9,5,7.2,5,7.7c0,0.4,0.3,0.8,0.8,0.8h0.6v9.3c0,0.6,0.2,1.2,0.6,1.6C7.4,19.8,8,20,8.5,20h6.9c0.6,0,1.1-0.2,1.5-0.7
		c0.4-0.4,0.6-1,0.6-1.6V8.5h0.6c0.4,0,0.8-0.4,0.8-0.8C19,7.2,18.7,6.9,18.2,6.9z M10,6.2c0-0.2,0.1-0.3,0.2-0.5
		c0.1-0.1,0.3-0.2,0.4-0.2h2.8c0.2,0,0.3,0.1,0.4,0.2C13.9,5.9,14,6.1,14,6.2v0.6h-4V6.2z M16.1,17.8c0,0.2-0.1,0.3-0.2,0.5
		c-0.1,0.1-0.3,0.2-0.4,0.2H8.5c-0.2,0-0.3-0.1-0.4-0.2c-0.1-0.1-0.2-0.3-0.2-0.5V8.5h8.2V17.8z"/>
	<path d="M13.4,16.4c0.4,0,0.8-0.4,0.8-0.8v-4.3c0-0.4-0.3-0.8-0.8-0.8s-0.8,0.4-0.8,0.8v4.3C12.6,16,13,16.4,13.4,16.4z"/>
</g>
</svg>
