<?xml version="1.0" encoding="utf-8"?>
<!-- Generator: Adobe Illustrator 26.0.1, SVG Export Plug-In . SVG Version: 6.00 Build 0)  -->
<svg version="1.1" id="Слой_1" xmlns="http://www.w3.org/2000/svg" xmlns:xlink="http://www.w3.org/1999/xlink" x="0px" y="0px"
	 viewBox="0 0 24 24" style="enable-background:new 0 0 24 24;" xml:space="preserve">
<g>
	<path d="M12,4.7C7.7,4.7,3.3,7.1,0,12c3.3,4.9,7.7,7.3,12,7.3c4.3,0,8.7-2.4,12-7.3C20.7,7.1,16.3,4.7,12,4.7z M12,17.2
		c-3.4,0-6.7-1.9-9.4-5.2c2.7-3.4,6-5.2,9.4-5.2c3.4,0,6.7,1.9,9.4,5.2C18.7,15.4,15.4,17.2,12,17.2z"/>
	<path d="M12,8c-2.2,0-4,1.8-4,4c0,2.2,1.8,4,4,4c2.2,0,4-1.8,4-4C16,9.8,14.2,8,12,8z M12,14.1c-1.1,0-2.1-0.9-2.1-2.1
		s0.9-2.1,2.1-2.1c1.1,0,2.1,0.9,2.1,2.1S13.1,14.1,12,14.1z"/>
</g>
</svg>
