<?xml version="1.0" encoding="utf-8"?>
<!-- Generator: Adobe Illustrator 26.0.1, SVG Export Plug-In . SVG Version: 6.00 Build 0)  -->
<svg version="1.1" id="Слой_1" xmlns="http://www.w3.org/2000/svg" xmlns:xlink="http://www.w3.org/1999/xlink" x="0px" y="0px"
	 viewBox="0 0 24 24" style="enable-background:new 0 0 24 24;" xml:space="preserve">
<path d="M22.3,10.3c0.2-0.5-0.1-1-0.6-1.2c-0.5-0.2-1,0.1-1.2,0.6c-1,2.5-2.9,4.5-5.5,5.5c-2.3,0.9-4.8,0.7-6.9-0.3
	c-2.2-1.1-3.8-2.9-4.7-5.2C3.2,9.2,2.7,8.9,2.2,9.1c-0.4,0.2-0.7,0.8-0.5,1.2c0.6,1.7,1.7,3.3,3,4.5l-1,1.2c-0.3,0.4-0.3,1,0.1,1.3
	c0.2,0.2,0.4,0.3,0.6,0.3c0.3,0,0.5-0.1,0.7-0.3l1.1-1.3c0.3,0.3,0.7,0.4,1.1,0.6c0.4,0.2,0.9,0.3,1.4,0.5l-0.5,2.2
	c-0.1,0.5,0.2,1,0.7,1.1c0.1,0,0.2,0,0.2,0c0.4,0,0.9-0.3,1-0.8l0.5-2.2c0.4,0.1,1,0.1,1.4,0.1c0.5,0,1,0,1.5-0.1l0.5,2.2
	c0.1,0.4,0.5,0.8,1,0.8c0.1,0,0.2,0,0.2,0c0.5-0.1,0.9-0.6,0.7-1.1L15.2,17c0.2-0.1,0.3-0.1,0.5-0.2c0.7-0.3,1.4-0.6,2-1l1.1,1.3
	c0.2,0.3,0.4,0.3,0.7,0.3c0.2,0,0.4-0.1,0.6-0.3c0.4-0.3,0.4-1,0.1-1.3l-1-1.2C20.7,13.6,21.7,12,22.3,10.3z"/>
</svg>
