<?xml version="1.0" encoding="utf-8"?>
<!-- Generator: Adobe Illustrator 26.0.1, SVG Export Plug-In . SVG Version: 6.00 Build 0)  -->
<svg version="1.1" id="Слой_1" xmlns="http://www.w3.org/2000/svg" xmlns:xlink="http://www.w3.org/1999/xlink" x="0px" y="0px"
	 viewBox="0 0 24 24" style="enable-background:new 0 0 24 24;" xml:space="preserve">
<g>
	<path d="M12,10.5c-0.4,0-0.8,0.3-0.8,0.8v4.7c0,0.4,0.3,0.8,0.8,0.8s0.8-0.3,0.8-0.8v-4.7C12.8,10.8,12.4,10.5,12,10.5z"/>
	<path d="M12,7.4c-0.4,0-0.8,0.3-0.8,0.8v0c0,0.4,0.3,0.7,0.8,0.7s0.8-0.3,0.8-0.8S12.4,7.4,12,7.4z"/>
	<path d="M12,4.2c-4.3,0-7.8,3.5-7.8,7.8s3.5,7.8,7.8,7.8s7.8-3.5,7.8-7.8S16.3,4.2,12,4.2z M12,18.2c-3.4,0-6.2-2.8-6.2-6.2
		S8.6,5.8,12,5.8s6.2,2.8,6.2,6.2S15.4,18.2,12,18.2z"/>
</g>
</svg>
