<?xml version="1.0" encoding="utf-8"?>
<!-- Generator: Adobe Illustrator 26.0.1, SVG Export Plug-In . SVG Version: 6.00 Build 0)  -->
<svg version="1.1" id="Слой_1" xmlns="http://www.w3.org/2000/svg" xmlns:xlink="http://www.w3.org/1999/xlink" x="0px" y="0px"
	 viewBox="0 0 147.1 161.5" style="enable-background:new 0 0 147.1 161.5;" xml:space="preserve">
<g>
	<path d="M144.1,73.7L73.5,2.9C69.6-1,63.2-1,59.3,2.9c-3.9,3.9-3.9,10.3,0,14.2l63.6,63.6l-63.6,63.7c-3.9,3.9-3.9,10.2,0,14.1
		c3.9,3.9,10.2,3.9,14.1,0l70.7-70.7C148,83.9,148,77.6,144.1,73.7z"/>
	<path d="M87.7,73.7L17.1,2.9C13.2-1,6.8-1,2.9,2.9C-1,6.8-1,13.2,2.9,17.1l63.6,63.6L2.9,144.4c-3.9,3.9-3.9,10.2,0,14.1
		c3.9,3.9,10.2,3.9,14.1,0l70.7-70.7C91.6,83.9,91.6,77.6,87.7,73.7z"/>
</g>
</svg>
