<?xml version="1.0" encoding="utf-8"?>
<!-- Generator: Adobe Illustrator 26.0.1, SVG Export Plug-In . SVG Version: 6.00 Build 0)  -->
<svg version="1.1" id="Слой_1" xmlns="http://www.w3.org/2000/svg" xmlns:xlink="http://www.w3.org/1999/xlink" x="0px" y="0px"
	 viewBox="0 0 24 24" style="enable-background:new 0 0 24 24;" xml:space="preserve">
<g>
	<path d="M12,1c-5,0-9,4-9,9c0,5.3,5.4,10.5,7.8,12.6c0.3,0.3,0.8,0.4,1.2,0.4c0.4,0,0.9-0.1,1.3-0.4c2.3-2,7.7-7.3,7.7-12.6
		C21,5,17,1,12,1z M12,21c-1.7-1.5-7-6.4-7-11c0-3.9,3.1-7,7-7c3.9,0,7,3.1,7,7C19,14.5,13.7,19.5,12,21z"/>
	<path d="M12,6c-2.2,0-4,1.8-4,4s1.8,4,4,4c2.2,0,4-1.8,4-4S14.2,6,12,6z M12,12c-1.1,0-2-0.9-2-2s0.9-2,2-2c1.1,0,2,0.9,2,2
		S13.1,12,12,12z"/>
</g>
</svg>
