<?xml version="1.0" encoding="utf-8"?>
<!-- Generator: Adobe Illustrator 26.0.1, SVG Export Plug-In . SVG Version: 6.00 Build 0)  -->
<svg version="1.1" id="Слой_1" xmlns="http://www.w3.org/2000/svg" xmlns:xlink="http://www.w3.org/1999/xlink" x="0px" y="0px"
	 viewBox="0 0 24 24" style="enable-background:new 0 0 24 24;" xml:space="preserve">
<g>
	<path d="M12,13c0.6,0,1-0.4,1-1s-0.4-1-1-1h0c-0.6,0-1,0.4-1,1S11.5,13,12,13z"/>
	<path d="M20,5h-3V4c0-1.7-1.3-3-3-3h-4C8.3,1,7,2.3,7,4v1H4C2.3,5,1,6.3,1,8v10c0,1.7,1.3,3,3,3h16c1.7,0,3-1.3,3-3V8
		C23,6.3,21.7,5,20,5z M9,4c0-0.6,0.4-1,1-1h4c0.6,0,1,0.4,1,1v1H9V4z M4,7h16c0.6,0,1,0.4,1,1v4.4c-5.5,3.4-12.5,3.4-18,0V8
		C3,7.4,3.4,7,4,7z M20,19H4c-0.6,0-1-0.4-1-1v-3.3c2.8,1.5,5.9,2.3,9,2.3c3.1,0,6.2-0.8,9-2.3V18C21,18.6,20.6,19,20,19z"/>
</g>
</svg>
